<mxfile host="app.diagrams.net" modified="2023-04-03T01:23:50.293Z" agent="Mozilla/5.0 (Windows NT 10.0; Win64; x64) AppleWebKit/537.36 (KHTML, like Gecko) Chrome/109.0.0.0 Safari/537.36" etag="8tk-tIJq3gpTTURFRGAw" version="21.1.2" type="github">
  <diagram name="第 1 页" id="BdZXFUZkp3zy7psTD71H">
    <mxGraphModel dx="1621" dy="743" grid="0" gridSize="10" guides="1" tooltips="1" connect="1" arrows="1" fold="1" page="0" pageScale="1" pageWidth="827" pageHeight="1169" math="0" shadow="0">
      <root>
        <mxCell id="0" />
        <mxCell id="1" parent="0" />
        <mxCell id="eoQyR7euwlenSZiSCgOB-1" value="" style="rounded=0;whiteSpace=wrap;html=1;sketch=0;fillStyle=auto;strokeWidth=1;fontSize=20;aspect=fixed;fillColor=default;" parent="1" vertex="1">
          <mxGeometry x="4" y="335" width="1072.98" height="804.75" as="geometry" />
        </mxCell>
        <mxCell id="eoQyR7euwlenSZiSCgOB-2" value="" style="rounded=1;whiteSpace=wrap;html=1;dashed=1;strokeWidth=2;" parent="1" vertex="1">
          <mxGeometry x="160.5" y="864" width="362.5" height="235" as="geometry" />
        </mxCell>
        <mxCell id="eoQyR7euwlenSZiSCgOB-3" value="" style="rounded=1;whiteSpace=wrap;html=1;dashed=1;strokeWidth=2;" parent="1" vertex="1">
          <mxGeometry x="160.5" y="623" width="361.5" height="235" as="geometry" />
        </mxCell>
        <mxCell id="eoQyR7euwlenSZiSCgOB-4" value="" style="rounded=1;whiteSpace=wrap;html=1;dashed=1;strokeWidth=2;" parent="1" vertex="1">
          <mxGeometry x="160.5" y="383" width="361.5" height="235" as="geometry" />
        </mxCell>
        <mxCell id="eoQyR7euwlenSZiSCgOB-5" style="edgeStyle=orthogonalEdgeStyle;rounded=0;orthogonalLoop=1;jettySize=auto;html=1;exitX=1;exitY=0.5;exitDx=0;exitDy=0;endArrow=none;endFill=0;strokeColor=default;strokeWidth=2;" parent="1" source="eoQyR7euwlenSZiSCgOB-6" target="eoQyR7euwlenSZiSCgOB-7" edge="1">
          <mxGeometry relative="1" as="geometry" />
        </mxCell>
        <mxCell id="eoQyR7euwlenSZiSCgOB-6" value="" style="whiteSpace=wrap;html=1;aspect=fixed;labelBackgroundColor=default;strokeColor=default;fontSize=13;fillColor=none;" parent="1" vertex="1">
          <mxGeometry x="183" y="401" width="80" height="80" as="geometry" />
        </mxCell>
        <mxCell id="eoQyR7euwlenSZiSCgOB-7" value="" style="whiteSpace=wrap;html=1;aspect=fixed;labelBackgroundColor=default;strokeColor=default;fontSize=13;fillColor=none;" parent="1" vertex="1">
          <mxGeometry x="302.25" y="401" width="80" height="80" as="geometry" />
        </mxCell>
        <mxCell id="eoQyR7euwlenSZiSCgOB-8" value="" style="whiteSpace=wrap;html=1;aspect=fixed;labelBackgroundColor=default;strokeColor=default;fontSize=13;fillColor=none;" parent="1" vertex="1">
          <mxGeometry x="422" y="401" width="80" height="80" as="geometry" />
        </mxCell>
        <mxCell id="eoQyR7euwlenSZiSCgOB-9" style="edgeStyle=orthogonalEdgeStyle;rounded=0;orthogonalLoop=1;jettySize=auto;html=1;exitX=0.5;exitY=1;exitDx=0;exitDy=0;strokeWidth=2;endArrow=none;endFill=0;strokeColor=default;" parent="1" source="eoQyR7euwlenSZiSCgOB-10" target="eoQyR7euwlenSZiSCgOB-13" edge="1">
          <mxGeometry relative="1" as="geometry" />
        </mxCell>
        <mxCell id="eoQyR7euwlenSZiSCgOB-10" value="" style="whiteSpace=wrap;html=1;aspect=fixed;labelBackgroundColor=default;strokeColor=default;fontSize=13;fillColor=none;" parent="1" vertex="1">
          <mxGeometry x="183.25" y="521" width="80" height="80" as="geometry" />
        </mxCell>
        <mxCell id="eoQyR7euwlenSZiSCgOB-11" value="" style="whiteSpace=wrap;html=1;aspect=fixed;labelBackgroundColor=default;strokeColor=default;fontSize=13;fillColor=none;" parent="1" vertex="1">
          <mxGeometry x="302.5" y="521" width="80" height="80" as="geometry" />
        </mxCell>
        <mxCell id="eoQyR7euwlenSZiSCgOB-12" value="" style="whiteSpace=wrap;html=1;aspect=fixed;labelBackgroundColor=default;strokeColor=default;fontSize=13;fillColor=none;" parent="1" vertex="1">
          <mxGeometry x="421.25" y="521" width="80" height="80" as="geometry" />
        </mxCell>
        <mxCell id="eoQyR7euwlenSZiSCgOB-13" value="" style="whiteSpace=wrap;html=1;aspect=fixed;labelBackgroundColor=default;strokeColor=default;fontSize=13;fillColor=none;" parent="1" vertex="1">
          <mxGeometry x="183" y="641" width="80" height="80" as="geometry" />
        </mxCell>
        <mxCell id="eoQyR7euwlenSZiSCgOB-14" value="" style="whiteSpace=wrap;html=1;aspect=fixed;labelBackgroundColor=default;strokeColor=default;fontSize=13;fillColor=none;" parent="1" vertex="1">
          <mxGeometry x="302.25" y="641" width="80" height="80" as="geometry" />
        </mxCell>
        <mxCell id="eoQyR7euwlenSZiSCgOB-15" value="" style="whiteSpace=wrap;html=1;aspect=fixed;labelBackgroundColor=default;strokeColor=default;fontSize=13;fillColor=none;" parent="1" vertex="1">
          <mxGeometry x="421" y="641" width="80" height="80" as="geometry" />
        </mxCell>
        <mxCell id="eoQyR7euwlenSZiSCgOB-16" value="" style="whiteSpace=wrap;html=1;aspect=fixed;labelBackgroundColor=default;strokeColor=default;fontSize=13;fillColor=none;" parent="1" vertex="1">
          <mxGeometry x="183" y="761" width="80" height="80" as="geometry" />
        </mxCell>
        <mxCell id="eoQyR7euwlenSZiSCgOB-17" value="" style="whiteSpace=wrap;html=1;aspect=fixed;labelBackgroundColor=default;strokeColor=default;fontSize=13;fillColor=none;" parent="1" vertex="1">
          <mxGeometry x="302.5" y="761" width="80" height="80" as="geometry" />
        </mxCell>
        <mxCell id="eoQyR7euwlenSZiSCgOB-18" value="" style="whiteSpace=wrap;html=1;aspect=fixed;labelBackgroundColor=default;strokeColor=default;fontSize=13;fillColor=default;" parent="1" vertex="1">
          <mxGeometry x="422" y="761" width="80" height="80" as="geometry" />
        </mxCell>
        <mxCell id="eoQyR7euwlenSZiSCgOB-19" style="edgeStyle=orthogonalEdgeStyle;rounded=0;orthogonalLoop=1;jettySize=auto;html=1;exitX=0.5;exitY=1;exitDx=0;exitDy=0;strokeWidth=2;endArrow=none;endFill=0;strokeColor=default;entryX=0.5;entryY=0;entryDx=0;entryDy=0;" parent="1" source="eoQyR7euwlenSZiSCgOB-13" target="eoQyR7euwlenSZiSCgOB-16" edge="1">
          <mxGeometry relative="1" as="geometry">
            <mxPoint x="136.34000000000015" y="881" as="sourcePoint" />
            <mxPoint x="136.34000000000015" y="921" as="targetPoint" />
          </mxGeometry>
        </mxCell>
        <mxCell id="eoQyR7euwlenSZiSCgOB-20" style="edgeStyle=orthogonalEdgeStyle;rounded=0;orthogonalLoop=1;jettySize=auto;html=1;exitX=1;exitY=0.5;exitDx=0;exitDy=0;strokeWidth=2;endArrow=none;endFill=0;strokeColor=default;" parent="1" source="eoQyR7euwlenSZiSCgOB-16" edge="1">
          <mxGeometry relative="1" as="geometry">
            <mxPoint x="277.34000000000015" y="886" as="sourcePoint" />
            <mxPoint x="302.34000000000015" y="801" as="targetPoint" />
          </mxGeometry>
        </mxCell>
        <mxCell id="eoQyR7euwlenSZiSCgOB-21" style="edgeStyle=orthogonalEdgeStyle;rounded=0;orthogonalLoop=1;jettySize=auto;html=1;exitX=1;exitY=0.5;exitDx=0;exitDy=0;strokeWidth=2;endArrow=none;endFill=0;strokeColor=default;entryX=0;entryY=0.5;entryDx=0;entryDy=0;" parent="1" source="eoQyR7euwlenSZiSCgOB-17" target="eoQyR7euwlenSZiSCgOB-18" edge="1">
          <mxGeometry relative="1" as="geometry">
            <mxPoint x="371.34000000000015" y="865" as="sourcePoint" />
            <mxPoint x="371.34000000000015" y="905" as="targetPoint" />
          </mxGeometry>
        </mxCell>
        <mxCell id="eoQyR7euwlenSZiSCgOB-22" style="edgeStyle=orthogonalEdgeStyle;rounded=0;orthogonalLoop=1;jettySize=auto;html=1;strokeWidth=2;endArrow=none;endFill=0;strokeColor=default;entryX=0;entryY=0.5;entryDx=0;entryDy=0;" parent="1" source="eoQyR7euwlenSZiSCgOB-14" target="eoQyR7euwlenSZiSCgOB-15" edge="1">
          <mxGeometry relative="1" as="geometry">
            <mxPoint x="386.34000000000015" y="738" as="sourcePoint" />
            <mxPoint x="418.34000000000015" y="681" as="targetPoint" />
          </mxGeometry>
        </mxCell>
        <mxCell id="eoQyR7euwlenSZiSCgOB-23" style="edgeStyle=orthogonalEdgeStyle;rounded=0;orthogonalLoop=1;jettySize=auto;html=1;exitX=0.5;exitY=1;exitDx=0;exitDy=0;strokeWidth=2;endArrow=none;endFill=0;strokeColor=default;" parent="1" source="eoQyR7euwlenSZiSCgOB-15" target="eoQyR7euwlenSZiSCgOB-18" edge="1">
          <mxGeometry relative="1" as="geometry">
            <mxPoint x="401.34000000000015" y="738" as="sourcePoint" />
            <mxPoint x="401.34000000000015" y="778" as="targetPoint" />
            <Array as="points">
              <mxPoint x="461.34000000000015" y="751" />
              <mxPoint x="461.34000000000015" y="751" />
            </Array>
          </mxGeometry>
        </mxCell>
        <mxCell id="eoQyR7euwlenSZiSCgOB-24" style="edgeStyle=orthogonalEdgeStyle;rounded=0;orthogonalLoop=1;jettySize=auto;html=1;exitX=0.5;exitY=1;exitDx=0;exitDy=0;strokeWidth=2;endArrow=none;endFill=0;strokeColor=default;entryX=0.5;entryY=0;entryDx=0;entryDy=0;" parent="1" source="eoQyR7euwlenSZiSCgOB-12" target="eoQyR7euwlenSZiSCgOB-15" edge="1">
          <mxGeometry relative="1" as="geometry">
            <mxPoint x="424.34000000000015" y="611" as="sourcePoint" />
            <mxPoint x="424.34000000000015" y="651" as="targetPoint" />
          </mxGeometry>
        </mxCell>
        <mxCell id="eoQyR7euwlenSZiSCgOB-25" style="edgeStyle=orthogonalEdgeStyle;rounded=0;orthogonalLoop=1;jettySize=auto;html=1;exitX=0.5;exitY=1;exitDx=0;exitDy=0;strokeWidth=2;endArrow=none;endFill=0;strokeColor=default;entryX=0.5;entryY=0;entryDx=0;entryDy=0;" parent="1" source="eoQyR7euwlenSZiSCgOB-8" target="eoQyR7euwlenSZiSCgOB-12" edge="1">
          <mxGeometry relative="1" as="geometry">
            <mxPoint x="502.34000000000015" y="492" as="sourcePoint" />
            <mxPoint x="502.34000000000015" y="532" as="targetPoint" />
          </mxGeometry>
        </mxCell>
        <mxCell id="eoQyR7euwlenSZiSCgOB-26" style="edgeStyle=orthogonalEdgeStyle;rounded=0;orthogonalLoop=1;jettySize=auto;html=1;exitX=0.5;exitY=1;exitDx=0;exitDy=0;strokeWidth=2;endArrow=none;endFill=0;strokeColor=default;" parent="1" source="eoQyR7euwlenSZiSCgOB-7" target="eoQyR7euwlenSZiSCgOB-11" edge="1">
          <mxGeometry relative="1" as="geometry">
            <mxPoint x="389.34000000000015" y="489" as="sourcePoint" />
            <mxPoint x="389.34000000000015" y="529" as="targetPoint" />
          </mxGeometry>
        </mxCell>
        <mxCell id="eoQyR7euwlenSZiSCgOB-27" style="edgeStyle=orthogonalEdgeStyle;rounded=0;orthogonalLoop=1;jettySize=auto;html=1;exitX=1;exitY=0.5;exitDx=0;exitDy=0;strokeWidth=2;endArrow=none;endFill=0;strokeColor=default;entryX=0;entryY=0.5;entryDx=0;entryDy=0;" parent="1" source="eoQyR7euwlenSZiSCgOB-11" target="eoQyR7euwlenSZiSCgOB-12" edge="1">
          <mxGeometry relative="1" as="geometry">
            <mxPoint x="393.34000000000015" y="558" as="sourcePoint" />
            <mxPoint x="393.34000000000015" y="598" as="targetPoint" />
          </mxGeometry>
        </mxCell>
        <mxCell id="eoQyR7euwlenSZiSCgOB-28" style="edgeStyle=orthogonalEdgeStyle;rounded=0;orthogonalLoop=1;jettySize=auto;html=1;exitX=0.5;exitY=1;exitDx=0;exitDy=0;strokeWidth=2;endArrow=none;endFill=0;strokeColor=default;entryX=0.5;entryY=0;entryDx=0;entryDy=0;" parent="1" source="eoQyR7euwlenSZiSCgOB-11" target="eoQyR7euwlenSZiSCgOB-14" edge="1">
          <mxGeometry relative="1" as="geometry">
            <mxPoint x="350.34000000000015" y="615" as="sourcePoint" />
            <mxPoint x="350.34000000000015" y="655" as="targetPoint" />
          </mxGeometry>
        </mxCell>
        <mxCell id="eoQyR7euwlenSZiSCgOB-29" style="edgeStyle=orthogonalEdgeStyle;rounded=0;orthogonalLoop=1;jettySize=auto;html=1;strokeWidth=2;endArrow=none;endFill=0;strokeColor=default;entryX=0.5;entryY=0;entryDx=0;entryDy=0;" parent="1" source="eoQyR7euwlenSZiSCgOB-14" target="eoQyR7euwlenSZiSCgOB-17" edge="1">
          <mxGeometry relative="1" as="geometry">
            <mxPoint x="347.34000000000015" y="734" as="sourcePoint" />
            <mxPoint x="342.34000000000015" y="758" as="targetPoint" />
          </mxGeometry>
        </mxCell>
        <mxCell id="eoQyR7euwlenSZiSCgOB-30" style="edgeStyle=orthogonalEdgeStyle;rounded=0;orthogonalLoop=1;jettySize=auto;html=1;exitX=1;exitY=0.5;exitDx=0;exitDy=0;strokeWidth=2;endArrow=none;endFill=0;strokeColor=default;entryX=0;entryY=0.5;entryDx=0;entryDy=0;" parent="1" source="eoQyR7euwlenSZiSCgOB-13" target="eoQyR7euwlenSZiSCgOB-14" edge="1">
          <mxGeometry relative="1" as="geometry">
            <mxPoint x="267.34000000000015" y="739" as="sourcePoint" />
            <mxPoint x="267.34000000000015" y="779" as="targetPoint" />
          </mxGeometry>
        </mxCell>
        <mxCell id="eoQyR7euwlenSZiSCgOB-31" style="edgeStyle=orthogonalEdgeStyle;rounded=0;orthogonalLoop=1;jettySize=auto;html=1;exitX=1;exitY=0.5;exitDx=0;exitDy=0;strokeWidth=2;endArrow=none;endFill=0;strokeColor=default;entryX=0;entryY=0.5;entryDx=0;entryDy=0;" parent="1" source="eoQyR7euwlenSZiSCgOB-10" target="eoQyR7euwlenSZiSCgOB-11" edge="1">
          <mxGeometry relative="1" as="geometry">
            <mxPoint x="278.34000000000015" y="552" as="sourcePoint" />
            <mxPoint x="278.34000000000015" y="592" as="targetPoint" />
          </mxGeometry>
        </mxCell>
        <mxCell id="eoQyR7euwlenSZiSCgOB-32" style="edgeStyle=orthogonalEdgeStyle;rounded=0;orthogonalLoop=1;jettySize=auto;html=1;exitX=0.5;exitY=1;exitDx=0;exitDy=0;strokeWidth=2;endArrow=none;endFill=0;strokeColor=default;" parent="1" source="eoQyR7euwlenSZiSCgOB-6" edge="1">
          <mxGeometry relative="1" as="geometry">
            <mxPoint x="201.34000000000015" y="494" as="sourcePoint" />
            <mxPoint x="223.34000000000015" y="520" as="targetPoint" />
          </mxGeometry>
        </mxCell>
        <mxCell id="eoQyR7euwlenSZiSCgOB-33" style="edgeStyle=orthogonalEdgeStyle;rounded=0;orthogonalLoop=1;jettySize=auto;html=1;exitX=1;exitY=0.5;exitDx=0;exitDy=0;strokeWidth=2;endArrow=none;endFill=0;strokeColor=default;entryX=0;entryY=0.5;entryDx=0;entryDy=0;" parent="1" source="eoQyR7euwlenSZiSCgOB-7" target="eoQyR7euwlenSZiSCgOB-8" edge="1">
          <mxGeometry relative="1" as="geometry">
            <mxPoint x="400.34000000000015" y="469" as="sourcePoint" />
            <mxPoint x="400.34000000000015" y="509" as="targetPoint" />
          </mxGeometry>
        </mxCell>
        <mxCell id="eoQyR7euwlenSZiSCgOB-34" value="" style="whiteSpace=wrap;html=1;aspect=fixed;labelBackgroundColor=default;strokeColor=default;fontSize=13;fillColor=none;" parent="1" vertex="1">
          <mxGeometry x="183" y="880" width="80" height="80" as="geometry" />
        </mxCell>
        <mxCell id="eoQyR7euwlenSZiSCgOB-35" value="" style="whiteSpace=wrap;html=1;aspect=fixed;labelBackgroundColor=default;strokeColor=default;fontSize=13;fillColor=none;" parent="1" vertex="1">
          <mxGeometry x="302.25" y="880" width="80" height="80" as="geometry" />
        </mxCell>
        <mxCell id="eoQyR7euwlenSZiSCgOB-36" value="" style="whiteSpace=wrap;html=1;aspect=fixed;labelBackgroundColor=default;strokeColor=default;fontSize=13;fillColor=none;" parent="1" vertex="1">
          <mxGeometry x="421" y="880" width="80" height="80" as="geometry" />
        </mxCell>
        <mxCell id="eoQyR7euwlenSZiSCgOB-37" value="" style="whiteSpace=wrap;html=1;aspect=fixed;labelBackgroundColor=default;strokeColor=default;fontSize=13;fillColor=none;" parent="1" vertex="1">
          <mxGeometry x="183" y="1000" width="80" height="80" as="geometry" />
        </mxCell>
        <mxCell id="eoQyR7euwlenSZiSCgOB-38" value="" style="whiteSpace=wrap;html=1;aspect=fixed;labelBackgroundColor=default;strokeColor=default;fontSize=13;fillColor=none;" parent="1" vertex="1">
          <mxGeometry x="302.5" y="1000" width="80" height="80" as="geometry" />
        </mxCell>
        <mxCell id="eoQyR7euwlenSZiSCgOB-39" value="" style="whiteSpace=wrap;html=1;aspect=fixed;labelBackgroundColor=default;strokeColor=default;fontSize=13;fillColor=default;" parent="1" vertex="1">
          <mxGeometry x="422" y="1000" width="80" height="80" as="geometry" />
        </mxCell>
        <mxCell id="eoQyR7euwlenSZiSCgOB-40" style="edgeStyle=orthogonalEdgeStyle;rounded=0;orthogonalLoop=1;jettySize=auto;html=1;exitX=0.5;exitY=1;exitDx=0;exitDy=0;strokeWidth=2;endArrow=none;endFill=0;strokeColor=default;entryX=0.5;entryY=0;entryDx=0;entryDy=0;" parent="1" source="eoQyR7euwlenSZiSCgOB-34" target="eoQyR7euwlenSZiSCgOB-37" edge="1">
          <mxGeometry relative="1" as="geometry">
            <mxPoint x="136.34000000000015" y="1120" as="sourcePoint" />
            <mxPoint x="136.34000000000015" y="1160" as="targetPoint" />
          </mxGeometry>
        </mxCell>
        <mxCell id="eoQyR7euwlenSZiSCgOB-41" style="edgeStyle=orthogonalEdgeStyle;rounded=0;orthogonalLoop=1;jettySize=auto;html=1;exitX=1;exitY=0.5;exitDx=0;exitDy=0;strokeWidth=2;endArrow=none;endFill=0;strokeColor=default;" parent="1" source="eoQyR7euwlenSZiSCgOB-37" edge="1">
          <mxGeometry relative="1" as="geometry">
            <mxPoint x="277.34000000000015" y="1125" as="sourcePoint" />
            <mxPoint x="302.34000000000015" y="1040" as="targetPoint" />
          </mxGeometry>
        </mxCell>
        <mxCell id="eoQyR7euwlenSZiSCgOB-42" style="edgeStyle=orthogonalEdgeStyle;rounded=0;orthogonalLoop=1;jettySize=auto;html=1;exitX=1;exitY=0.5;exitDx=0;exitDy=0;strokeWidth=2;endArrow=none;endFill=0;strokeColor=default;entryX=0;entryY=0.5;entryDx=0;entryDy=0;" parent="1" source="eoQyR7euwlenSZiSCgOB-38" target="eoQyR7euwlenSZiSCgOB-39" edge="1">
          <mxGeometry relative="1" as="geometry">
            <mxPoint x="371.34000000000015" y="1104" as="sourcePoint" />
            <mxPoint x="371.34000000000015" y="1144" as="targetPoint" />
          </mxGeometry>
        </mxCell>
        <mxCell id="eoQyR7euwlenSZiSCgOB-43" style="edgeStyle=orthogonalEdgeStyle;rounded=0;orthogonalLoop=1;jettySize=auto;html=1;strokeWidth=2;endArrow=none;endFill=0;strokeColor=default;entryX=0;entryY=0.5;entryDx=0;entryDy=0;" parent="1" source="eoQyR7euwlenSZiSCgOB-35" target="eoQyR7euwlenSZiSCgOB-36" edge="1">
          <mxGeometry relative="1" as="geometry">
            <mxPoint x="386.34000000000015" y="977" as="sourcePoint" />
            <mxPoint x="418.34000000000015" y="920" as="targetPoint" />
          </mxGeometry>
        </mxCell>
        <mxCell id="eoQyR7euwlenSZiSCgOB-44" style="edgeStyle=orthogonalEdgeStyle;rounded=0;orthogonalLoop=1;jettySize=auto;html=1;exitX=0.5;exitY=1;exitDx=0;exitDy=0;strokeWidth=2;endArrow=none;endFill=0;strokeColor=default;" parent="1" source="eoQyR7euwlenSZiSCgOB-36" target="eoQyR7euwlenSZiSCgOB-39" edge="1">
          <mxGeometry relative="1" as="geometry">
            <mxPoint x="401.34000000000015" y="977" as="sourcePoint" />
            <mxPoint x="401.34000000000015" y="1017" as="targetPoint" />
            <Array as="points">
              <mxPoint x="461.34000000000015" y="990" />
              <mxPoint x="461.34000000000015" y="990" />
            </Array>
          </mxGeometry>
        </mxCell>
        <mxCell id="eoQyR7euwlenSZiSCgOB-45" style="edgeStyle=orthogonalEdgeStyle;rounded=0;orthogonalLoop=1;jettySize=auto;html=1;strokeWidth=2;endArrow=none;endFill=0;strokeColor=default;entryX=0.5;entryY=0;entryDx=0;entryDy=0;" parent="1" source="eoQyR7euwlenSZiSCgOB-35" target="eoQyR7euwlenSZiSCgOB-38" edge="1">
          <mxGeometry relative="1" as="geometry">
            <mxPoint x="347.34000000000015" y="973" as="sourcePoint" />
            <mxPoint x="342.34000000000015" y="997" as="targetPoint" />
          </mxGeometry>
        </mxCell>
        <mxCell id="eoQyR7euwlenSZiSCgOB-46" style="edgeStyle=orthogonalEdgeStyle;rounded=0;orthogonalLoop=1;jettySize=auto;html=1;exitX=1;exitY=0.5;exitDx=0;exitDy=0;strokeWidth=2;endArrow=none;endFill=0;strokeColor=default;entryX=0;entryY=0.5;entryDx=0;entryDy=0;" parent="1" source="eoQyR7euwlenSZiSCgOB-34" target="eoQyR7euwlenSZiSCgOB-35" edge="1">
          <mxGeometry relative="1" as="geometry">
            <mxPoint x="267.34000000000015" y="978" as="sourcePoint" />
            <mxPoint x="267.34000000000015" y="1018" as="targetPoint" />
          </mxGeometry>
        </mxCell>
        <mxCell id="eoQyR7euwlenSZiSCgOB-47" value="" style="endArrow=none;html=1;rounded=0;entryX=0.5;entryY=1;entryDx=0;entryDy=0;exitX=0.516;exitY=0;exitDx=0;exitDy=0;exitPerimeter=0;strokeWidth=2;" parent="1" source="eoQyR7euwlenSZiSCgOB-36" target="eoQyR7euwlenSZiSCgOB-18" edge="1">
          <mxGeometry width="50" height="50" relative="1" as="geometry">
            <mxPoint x="405.34000000000015" y="905" as="sourcePoint" />
            <mxPoint x="455.34000000000015" y="855" as="targetPoint" />
          </mxGeometry>
        </mxCell>
        <mxCell id="eoQyR7euwlenSZiSCgOB-48" value="" style="endArrow=none;html=1;rounded=0;entryX=0.5;entryY=1;entryDx=0;entryDy=0;strokeWidth=2;" parent="1" source="eoQyR7euwlenSZiSCgOB-35" target="eoQyR7euwlenSZiSCgOB-17" edge="1">
          <mxGeometry width="50" height="50" relative="1" as="geometry">
            <mxPoint x="325.34000000000015" y="905" as="sourcePoint" />
            <mxPoint x="375.34000000000015" y="855" as="targetPoint" />
          </mxGeometry>
        </mxCell>
        <mxCell id="eoQyR7euwlenSZiSCgOB-49" value="" style="endArrow=none;html=1;rounded=0;entryX=0.5;entryY=1;entryDx=0;entryDy=0;exitX=0.5;exitY=0;exitDx=0;exitDy=0;strokeWidth=2;" parent="1" source="eoQyR7euwlenSZiSCgOB-34" target="eoQyR7euwlenSZiSCgOB-16" edge="1">
          <mxGeometry width="50" height="50" relative="1" as="geometry">
            <mxPoint x="155.34000000000015" y="915" as="sourcePoint" />
            <mxPoint x="205.34000000000015" y="865" as="targetPoint" />
          </mxGeometry>
        </mxCell>
        <mxCell id="eoQyR7euwlenSZiSCgOB-50" value="" style="rounded=1;whiteSpace=wrap;html=1;dashed=1;strokeWidth=2;" parent="1" vertex="1">
          <mxGeometry x="536.1599999999999" y="864" width="362.5" height="235" as="geometry" />
        </mxCell>
        <mxCell id="eoQyR7euwlenSZiSCgOB-51" value="" style="rounded=1;whiteSpace=wrap;html=1;dashed=1;strokeWidth=2;" parent="1" vertex="1">
          <mxGeometry x="536.1599999999999" y="623" width="361.5" height="235" as="geometry" />
        </mxCell>
        <mxCell id="eoQyR7euwlenSZiSCgOB-52" value="" style="rounded=1;whiteSpace=wrap;html=1;dashed=1;strokeWidth=2;" parent="1" vertex="1">
          <mxGeometry x="536.1599999999999" y="383" width="361.5" height="235" as="geometry" />
        </mxCell>
        <mxCell id="eoQyR7euwlenSZiSCgOB-53" style="edgeStyle=orthogonalEdgeStyle;rounded=0;orthogonalLoop=1;jettySize=auto;html=1;exitX=1;exitY=0.5;exitDx=0;exitDy=0;endArrow=none;endFill=0;strokeColor=default;strokeWidth=2;" parent="1" source="eoQyR7euwlenSZiSCgOB-54" target="eoQyR7euwlenSZiSCgOB-55" edge="1">
          <mxGeometry relative="1" as="geometry" />
        </mxCell>
        <mxCell id="eoQyR7euwlenSZiSCgOB-54" value="" style="whiteSpace=wrap;html=1;aspect=fixed;labelBackgroundColor=default;strokeColor=default;fontSize=13;fillColor=none;" parent="1" vertex="1">
          <mxGeometry x="558.6599999999999" y="401" width="80" height="80" as="geometry" />
        </mxCell>
        <mxCell id="eoQyR7euwlenSZiSCgOB-55" value="" style="whiteSpace=wrap;html=1;aspect=fixed;labelBackgroundColor=default;strokeColor=default;fontSize=13;fillColor=none;" parent="1" vertex="1">
          <mxGeometry x="677.9099999999999" y="401" width="80" height="80" as="geometry" />
        </mxCell>
        <mxCell id="eoQyR7euwlenSZiSCgOB-56" value="" style="whiteSpace=wrap;html=1;aspect=fixed;labelBackgroundColor=default;strokeColor=default;fontSize=13;fillColor=none;" parent="1" vertex="1">
          <mxGeometry x="797.6599999999999" y="401" width="80" height="80" as="geometry" />
        </mxCell>
        <mxCell id="eoQyR7euwlenSZiSCgOB-57" style="edgeStyle=orthogonalEdgeStyle;rounded=0;orthogonalLoop=1;jettySize=auto;html=1;exitX=0.5;exitY=1;exitDx=0;exitDy=0;strokeWidth=2;endArrow=none;endFill=0;strokeColor=default;" parent="1" source="eoQyR7euwlenSZiSCgOB-58" target="eoQyR7euwlenSZiSCgOB-61" edge="1">
          <mxGeometry relative="1" as="geometry" />
        </mxCell>
        <mxCell id="eoQyR7euwlenSZiSCgOB-58" value="" style="whiteSpace=wrap;html=1;aspect=fixed;labelBackgroundColor=default;strokeColor=default;fontSize=13;fillColor=none;" parent="1" vertex="1">
          <mxGeometry x="558.9099999999999" y="521" width="80" height="80" as="geometry" />
        </mxCell>
        <mxCell id="eoQyR7euwlenSZiSCgOB-59" value="" style="whiteSpace=wrap;html=1;aspect=fixed;labelBackgroundColor=default;strokeColor=default;fontSize=13;fillColor=none;" parent="1" vertex="1">
          <mxGeometry x="678.1599999999999" y="521" width="80" height="80" as="geometry" />
        </mxCell>
        <mxCell id="eoQyR7euwlenSZiSCgOB-60" value="" style="whiteSpace=wrap;html=1;aspect=fixed;labelBackgroundColor=default;strokeColor=default;fontSize=13;fillColor=none;" parent="1" vertex="1">
          <mxGeometry x="796.9099999999999" y="521" width="80" height="80" as="geometry" />
        </mxCell>
        <mxCell id="eoQyR7euwlenSZiSCgOB-61" value="" style="whiteSpace=wrap;html=1;aspect=fixed;labelBackgroundColor=default;strokeColor=default;fontSize=13;fillColor=none;" parent="1" vertex="1">
          <mxGeometry x="558.6599999999999" y="641" width="80" height="80" as="geometry" />
        </mxCell>
        <mxCell id="eoQyR7euwlenSZiSCgOB-62" value="" style="whiteSpace=wrap;html=1;aspect=fixed;labelBackgroundColor=default;strokeColor=default;fontSize=13;fillColor=none;" parent="1" vertex="1">
          <mxGeometry x="677.9099999999999" y="641" width="80" height="80" as="geometry" />
        </mxCell>
        <mxCell id="eoQyR7euwlenSZiSCgOB-63" value="" style="whiteSpace=wrap;html=1;aspect=fixed;labelBackgroundColor=default;strokeColor=default;fontSize=13;fillColor=none;" parent="1" vertex="1">
          <mxGeometry x="796.6599999999999" y="641" width="80" height="80" as="geometry" />
        </mxCell>
        <mxCell id="eoQyR7euwlenSZiSCgOB-64" value="" style="whiteSpace=wrap;html=1;aspect=fixed;labelBackgroundColor=default;strokeColor=default;fontSize=13;fillColor=none;" parent="1" vertex="1">
          <mxGeometry x="558.6599999999999" y="761" width="80" height="80" as="geometry" />
        </mxCell>
        <mxCell id="eoQyR7euwlenSZiSCgOB-65" value="" style="whiteSpace=wrap;html=1;aspect=fixed;labelBackgroundColor=default;strokeColor=default;fontSize=13;fillColor=none;" parent="1" vertex="1">
          <mxGeometry x="678.1599999999999" y="761" width="80" height="80" as="geometry" />
        </mxCell>
        <mxCell id="eoQyR7euwlenSZiSCgOB-66" value="" style="whiteSpace=wrap;html=1;aspect=fixed;labelBackgroundColor=default;strokeColor=default;fontSize=13;fillColor=default;" parent="1" vertex="1">
          <mxGeometry x="797.6599999999999" y="761" width="80" height="80" as="geometry" />
        </mxCell>
        <mxCell id="eoQyR7euwlenSZiSCgOB-67" style="edgeStyle=orthogonalEdgeStyle;rounded=0;orthogonalLoop=1;jettySize=auto;html=1;exitX=0.5;exitY=1;exitDx=0;exitDy=0;strokeWidth=2;endArrow=none;endFill=0;strokeColor=default;entryX=0.5;entryY=0;entryDx=0;entryDy=0;" parent="1" source="eoQyR7euwlenSZiSCgOB-61" target="eoQyR7euwlenSZiSCgOB-64" edge="1">
          <mxGeometry relative="1" as="geometry">
            <mxPoint x="512" y="881" as="sourcePoint" />
            <mxPoint x="512" y="921" as="targetPoint" />
          </mxGeometry>
        </mxCell>
        <mxCell id="eoQyR7euwlenSZiSCgOB-68" style="edgeStyle=orthogonalEdgeStyle;rounded=0;orthogonalLoop=1;jettySize=auto;html=1;exitX=1;exitY=0.5;exitDx=0;exitDy=0;strokeWidth=2;endArrow=none;endFill=0;strokeColor=default;" parent="1" source="eoQyR7euwlenSZiSCgOB-64" edge="1">
          <mxGeometry relative="1" as="geometry">
            <mxPoint x="653" y="886" as="sourcePoint" />
            <mxPoint x="678" y="801" as="targetPoint" />
          </mxGeometry>
        </mxCell>
        <mxCell id="eoQyR7euwlenSZiSCgOB-69" style="edgeStyle=orthogonalEdgeStyle;rounded=0;orthogonalLoop=1;jettySize=auto;html=1;exitX=1;exitY=0.5;exitDx=0;exitDy=0;strokeWidth=2;endArrow=none;endFill=0;strokeColor=default;entryX=0;entryY=0.5;entryDx=0;entryDy=0;" parent="1" source="eoQyR7euwlenSZiSCgOB-65" target="eoQyR7euwlenSZiSCgOB-66" edge="1">
          <mxGeometry relative="1" as="geometry">
            <mxPoint x="747" y="865" as="sourcePoint" />
            <mxPoint x="747" y="905" as="targetPoint" />
          </mxGeometry>
        </mxCell>
        <mxCell id="eoQyR7euwlenSZiSCgOB-70" style="edgeStyle=orthogonalEdgeStyle;rounded=0;orthogonalLoop=1;jettySize=auto;html=1;strokeWidth=2;endArrow=none;endFill=0;strokeColor=default;entryX=0;entryY=0.5;entryDx=0;entryDy=0;" parent="1" source="eoQyR7euwlenSZiSCgOB-62" target="eoQyR7euwlenSZiSCgOB-63" edge="1">
          <mxGeometry relative="1" as="geometry">
            <mxPoint x="762" y="738" as="sourcePoint" />
            <mxPoint x="794" y="681" as="targetPoint" />
          </mxGeometry>
        </mxCell>
        <mxCell id="eoQyR7euwlenSZiSCgOB-71" style="edgeStyle=orthogonalEdgeStyle;rounded=0;orthogonalLoop=1;jettySize=auto;html=1;exitX=0.5;exitY=1;exitDx=0;exitDy=0;strokeWidth=2;endArrow=none;endFill=0;strokeColor=default;" parent="1" source="eoQyR7euwlenSZiSCgOB-63" target="eoQyR7euwlenSZiSCgOB-66" edge="1">
          <mxGeometry relative="1" as="geometry">
            <mxPoint x="777" y="738" as="sourcePoint" />
            <mxPoint x="777" y="778" as="targetPoint" />
            <Array as="points">
              <mxPoint x="837" y="751" />
              <mxPoint x="837" y="751" />
            </Array>
          </mxGeometry>
        </mxCell>
        <mxCell id="eoQyR7euwlenSZiSCgOB-72" style="edgeStyle=orthogonalEdgeStyle;rounded=0;orthogonalLoop=1;jettySize=auto;html=1;exitX=0.5;exitY=1;exitDx=0;exitDy=0;strokeWidth=2;endArrow=none;endFill=0;strokeColor=default;entryX=0.5;entryY=0;entryDx=0;entryDy=0;" parent="1" source="eoQyR7euwlenSZiSCgOB-60" target="eoQyR7euwlenSZiSCgOB-63" edge="1">
          <mxGeometry relative="1" as="geometry">
            <mxPoint x="800" y="611" as="sourcePoint" />
            <mxPoint x="800" y="651" as="targetPoint" />
          </mxGeometry>
        </mxCell>
        <mxCell id="eoQyR7euwlenSZiSCgOB-73" style="edgeStyle=orthogonalEdgeStyle;rounded=0;orthogonalLoop=1;jettySize=auto;html=1;exitX=0.5;exitY=1;exitDx=0;exitDy=0;strokeWidth=2;endArrow=none;endFill=0;strokeColor=default;entryX=0.5;entryY=0;entryDx=0;entryDy=0;" parent="1" source="eoQyR7euwlenSZiSCgOB-56" target="eoQyR7euwlenSZiSCgOB-60" edge="1">
          <mxGeometry relative="1" as="geometry">
            <mxPoint x="878" y="492" as="sourcePoint" />
            <mxPoint x="878" y="532" as="targetPoint" />
          </mxGeometry>
        </mxCell>
        <mxCell id="eoQyR7euwlenSZiSCgOB-74" style="edgeStyle=orthogonalEdgeStyle;rounded=0;orthogonalLoop=1;jettySize=auto;html=1;exitX=0.5;exitY=1;exitDx=0;exitDy=0;strokeWidth=2;endArrow=none;endFill=0;strokeColor=default;" parent="1" source="eoQyR7euwlenSZiSCgOB-55" target="eoQyR7euwlenSZiSCgOB-59" edge="1">
          <mxGeometry relative="1" as="geometry">
            <mxPoint x="765" y="489" as="sourcePoint" />
            <mxPoint x="765" y="529" as="targetPoint" />
          </mxGeometry>
        </mxCell>
        <mxCell id="eoQyR7euwlenSZiSCgOB-75" style="edgeStyle=orthogonalEdgeStyle;rounded=0;orthogonalLoop=1;jettySize=auto;html=1;exitX=1;exitY=0.5;exitDx=0;exitDy=0;strokeWidth=2;endArrow=none;endFill=0;strokeColor=default;entryX=0;entryY=0.5;entryDx=0;entryDy=0;" parent="1" source="eoQyR7euwlenSZiSCgOB-59" target="eoQyR7euwlenSZiSCgOB-60" edge="1">
          <mxGeometry relative="1" as="geometry">
            <mxPoint x="769" y="558" as="sourcePoint" />
            <mxPoint x="769" y="598" as="targetPoint" />
          </mxGeometry>
        </mxCell>
        <mxCell id="eoQyR7euwlenSZiSCgOB-76" style="edgeStyle=orthogonalEdgeStyle;rounded=0;orthogonalLoop=1;jettySize=auto;html=1;exitX=0.5;exitY=1;exitDx=0;exitDy=0;strokeWidth=2;endArrow=none;endFill=0;strokeColor=default;entryX=0.5;entryY=0;entryDx=0;entryDy=0;" parent="1" source="eoQyR7euwlenSZiSCgOB-59" target="eoQyR7euwlenSZiSCgOB-62" edge="1">
          <mxGeometry relative="1" as="geometry">
            <mxPoint x="726" y="615" as="sourcePoint" />
            <mxPoint x="726" y="655" as="targetPoint" />
          </mxGeometry>
        </mxCell>
        <mxCell id="eoQyR7euwlenSZiSCgOB-77" style="edgeStyle=orthogonalEdgeStyle;rounded=0;orthogonalLoop=1;jettySize=auto;html=1;strokeWidth=2;endArrow=none;endFill=0;strokeColor=default;entryX=0.5;entryY=0;entryDx=0;entryDy=0;" parent="1" source="eoQyR7euwlenSZiSCgOB-62" target="eoQyR7euwlenSZiSCgOB-65" edge="1">
          <mxGeometry relative="1" as="geometry">
            <mxPoint x="723" y="734" as="sourcePoint" />
            <mxPoint x="718" y="758" as="targetPoint" />
          </mxGeometry>
        </mxCell>
        <mxCell id="eoQyR7euwlenSZiSCgOB-78" style="edgeStyle=orthogonalEdgeStyle;rounded=0;orthogonalLoop=1;jettySize=auto;html=1;exitX=1;exitY=0.5;exitDx=0;exitDy=0;strokeWidth=2;endArrow=none;endFill=0;strokeColor=default;entryX=0;entryY=0.5;entryDx=0;entryDy=0;" parent="1" source="eoQyR7euwlenSZiSCgOB-61" target="eoQyR7euwlenSZiSCgOB-62" edge="1">
          <mxGeometry relative="1" as="geometry">
            <mxPoint x="643" y="739" as="sourcePoint" />
            <mxPoint x="643" y="779" as="targetPoint" />
          </mxGeometry>
        </mxCell>
        <mxCell id="eoQyR7euwlenSZiSCgOB-79" style="edgeStyle=orthogonalEdgeStyle;rounded=0;orthogonalLoop=1;jettySize=auto;html=1;exitX=1;exitY=0.5;exitDx=0;exitDy=0;strokeWidth=2;endArrow=none;endFill=0;strokeColor=default;entryX=0;entryY=0.5;entryDx=0;entryDy=0;" parent="1" source="eoQyR7euwlenSZiSCgOB-58" target="eoQyR7euwlenSZiSCgOB-59" edge="1">
          <mxGeometry relative="1" as="geometry">
            <mxPoint x="654" y="552" as="sourcePoint" />
            <mxPoint x="654" y="592" as="targetPoint" />
          </mxGeometry>
        </mxCell>
        <mxCell id="eoQyR7euwlenSZiSCgOB-80" style="edgeStyle=orthogonalEdgeStyle;rounded=0;orthogonalLoop=1;jettySize=auto;html=1;exitX=0.5;exitY=1;exitDx=0;exitDy=0;strokeWidth=2;endArrow=none;endFill=0;strokeColor=default;" parent="1" source="eoQyR7euwlenSZiSCgOB-54" edge="1">
          <mxGeometry relative="1" as="geometry">
            <mxPoint x="577" y="494" as="sourcePoint" />
            <mxPoint x="599" y="520" as="targetPoint" />
          </mxGeometry>
        </mxCell>
        <mxCell id="eoQyR7euwlenSZiSCgOB-81" style="edgeStyle=orthogonalEdgeStyle;rounded=0;orthogonalLoop=1;jettySize=auto;html=1;exitX=1;exitY=0.5;exitDx=0;exitDy=0;strokeWidth=2;endArrow=none;endFill=0;strokeColor=default;entryX=0;entryY=0.5;entryDx=0;entryDy=0;" parent="1" source="eoQyR7euwlenSZiSCgOB-55" target="eoQyR7euwlenSZiSCgOB-56" edge="1">
          <mxGeometry relative="1" as="geometry">
            <mxPoint x="776" y="469" as="sourcePoint" />
            <mxPoint x="776" y="509" as="targetPoint" />
          </mxGeometry>
        </mxCell>
        <mxCell id="eoQyR7euwlenSZiSCgOB-82" value="" style="whiteSpace=wrap;html=1;aspect=fixed;labelBackgroundColor=default;strokeColor=default;fontSize=13;fillColor=none;" parent="1" vertex="1">
          <mxGeometry x="558.6599999999999" y="880" width="80" height="80" as="geometry" />
        </mxCell>
        <mxCell id="eoQyR7euwlenSZiSCgOB-83" value="" style="whiteSpace=wrap;html=1;aspect=fixed;labelBackgroundColor=default;strokeColor=default;fontSize=13;fillColor=none;" parent="1" vertex="1">
          <mxGeometry x="677.9099999999999" y="880" width="80" height="80" as="geometry" />
        </mxCell>
        <mxCell id="eoQyR7euwlenSZiSCgOB-84" value="" style="whiteSpace=wrap;html=1;aspect=fixed;labelBackgroundColor=default;strokeColor=default;fontSize=13;fillColor=none;" parent="1" vertex="1">
          <mxGeometry x="796.6599999999999" y="880" width="80" height="80" as="geometry" />
        </mxCell>
        <mxCell id="eoQyR7euwlenSZiSCgOB-85" value="" style="whiteSpace=wrap;html=1;aspect=fixed;labelBackgroundColor=default;strokeColor=default;fontSize=13;fillColor=none;" parent="1" vertex="1">
          <mxGeometry x="558.6599999999999" y="1000" width="80" height="80" as="geometry" />
        </mxCell>
        <mxCell id="eoQyR7euwlenSZiSCgOB-86" value="" style="whiteSpace=wrap;html=1;aspect=fixed;labelBackgroundColor=default;strokeColor=default;fontSize=13;fillColor=none;" parent="1" vertex="1">
          <mxGeometry x="678.1599999999999" y="1000" width="80" height="80" as="geometry" />
        </mxCell>
        <mxCell id="eoQyR7euwlenSZiSCgOB-87" value="" style="whiteSpace=wrap;html=1;aspect=fixed;labelBackgroundColor=default;strokeColor=default;fontSize=13;fillColor=default;" parent="1" vertex="1">
          <mxGeometry x="797.6599999999999" y="1000" width="80" height="80" as="geometry" />
        </mxCell>
        <mxCell id="eoQyR7euwlenSZiSCgOB-88" style="edgeStyle=orthogonalEdgeStyle;rounded=0;orthogonalLoop=1;jettySize=auto;html=1;exitX=0.5;exitY=1;exitDx=0;exitDy=0;strokeWidth=2;endArrow=none;endFill=0;strokeColor=default;entryX=0.5;entryY=0;entryDx=0;entryDy=0;" parent="1" source="eoQyR7euwlenSZiSCgOB-82" target="eoQyR7euwlenSZiSCgOB-85" edge="1">
          <mxGeometry relative="1" as="geometry">
            <mxPoint x="512" y="1120" as="sourcePoint" />
            <mxPoint x="512" y="1160" as="targetPoint" />
          </mxGeometry>
        </mxCell>
        <mxCell id="eoQyR7euwlenSZiSCgOB-89" style="edgeStyle=orthogonalEdgeStyle;rounded=0;orthogonalLoop=1;jettySize=auto;html=1;exitX=1;exitY=0.5;exitDx=0;exitDy=0;strokeWidth=2;endArrow=none;endFill=0;strokeColor=default;" parent="1" source="eoQyR7euwlenSZiSCgOB-85" edge="1">
          <mxGeometry relative="1" as="geometry">
            <mxPoint x="653" y="1125" as="sourcePoint" />
            <mxPoint x="678" y="1040" as="targetPoint" />
          </mxGeometry>
        </mxCell>
        <mxCell id="eoQyR7euwlenSZiSCgOB-90" style="edgeStyle=orthogonalEdgeStyle;rounded=0;orthogonalLoop=1;jettySize=auto;html=1;exitX=1;exitY=0.5;exitDx=0;exitDy=0;strokeWidth=2;endArrow=none;endFill=0;strokeColor=default;entryX=0;entryY=0.5;entryDx=0;entryDy=0;" parent="1" source="eoQyR7euwlenSZiSCgOB-86" target="eoQyR7euwlenSZiSCgOB-87" edge="1">
          <mxGeometry relative="1" as="geometry">
            <mxPoint x="747" y="1104" as="sourcePoint" />
            <mxPoint x="747" y="1144" as="targetPoint" />
          </mxGeometry>
        </mxCell>
        <mxCell id="eoQyR7euwlenSZiSCgOB-91" style="edgeStyle=orthogonalEdgeStyle;rounded=0;orthogonalLoop=1;jettySize=auto;html=1;strokeWidth=2;endArrow=none;endFill=0;strokeColor=default;entryX=0;entryY=0.5;entryDx=0;entryDy=0;" parent="1" source="eoQyR7euwlenSZiSCgOB-83" target="eoQyR7euwlenSZiSCgOB-84" edge="1">
          <mxGeometry relative="1" as="geometry">
            <mxPoint x="762" y="977" as="sourcePoint" />
            <mxPoint x="794" y="920" as="targetPoint" />
          </mxGeometry>
        </mxCell>
        <mxCell id="eoQyR7euwlenSZiSCgOB-92" style="edgeStyle=orthogonalEdgeStyle;rounded=0;orthogonalLoop=1;jettySize=auto;html=1;exitX=0.5;exitY=1;exitDx=0;exitDy=0;strokeWidth=2;endArrow=none;endFill=0;strokeColor=default;" parent="1" source="eoQyR7euwlenSZiSCgOB-84" target="eoQyR7euwlenSZiSCgOB-87" edge="1">
          <mxGeometry relative="1" as="geometry">
            <mxPoint x="777" y="977" as="sourcePoint" />
            <mxPoint x="777" y="1017" as="targetPoint" />
            <Array as="points">
              <mxPoint x="837" y="990" />
              <mxPoint x="837" y="990" />
            </Array>
          </mxGeometry>
        </mxCell>
        <mxCell id="eoQyR7euwlenSZiSCgOB-93" style="edgeStyle=orthogonalEdgeStyle;rounded=0;orthogonalLoop=1;jettySize=auto;html=1;strokeWidth=2;endArrow=none;endFill=0;strokeColor=default;entryX=0.5;entryY=0;entryDx=0;entryDy=0;" parent="1" source="eoQyR7euwlenSZiSCgOB-83" target="eoQyR7euwlenSZiSCgOB-86" edge="1">
          <mxGeometry relative="1" as="geometry">
            <mxPoint x="723" y="973" as="sourcePoint" />
            <mxPoint x="718" y="997" as="targetPoint" />
          </mxGeometry>
        </mxCell>
        <mxCell id="eoQyR7euwlenSZiSCgOB-94" style="edgeStyle=orthogonalEdgeStyle;rounded=0;orthogonalLoop=1;jettySize=auto;html=1;exitX=1;exitY=0.5;exitDx=0;exitDy=0;strokeWidth=2;endArrow=none;endFill=0;strokeColor=default;entryX=0;entryY=0.5;entryDx=0;entryDy=0;" parent="1" source="eoQyR7euwlenSZiSCgOB-82" target="eoQyR7euwlenSZiSCgOB-83" edge="1">
          <mxGeometry relative="1" as="geometry">
            <mxPoint x="643" y="978" as="sourcePoint" />
            <mxPoint x="643" y="1018" as="targetPoint" />
          </mxGeometry>
        </mxCell>
        <mxCell id="eoQyR7euwlenSZiSCgOB-95" value="" style="endArrow=none;html=1;rounded=0;entryX=0.5;entryY=1;entryDx=0;entryDy=0;exitX=0.516;exitY=0;exitDx=0;exitDy=0;exitPerimeter=0;strokeWidth=2;" parent="1" source="eoQyR7euwlenSZiSCgOB-84" target="eoQyR7euwlenSZiSCgOB-66" edge="1">
          <mxGeometry width="50" height="50" relative="1" as="geometry">
            <mxPoint x="781" y="905" as="sourcePoint" />
            <mxPoint x="831" y="855" as="targetPoint" />
          </mxGeometry>
        </mxCell>
        <mxCell id="eoQyR7euwlenSZiSCgOB-96" value="" style="endArrow=none;html=1;rounded=0;entryX=0.5;entryY=1;entryDx=0;entryDy=0;strokeWidth=2;" parent="1" source="eoQyR7euwlenSZiSCgOB-83" target="eoQyR7euwlenSZiSCgOB-65" edge="1">
          <mxGeometry width="50" height="50" relative="1" as="geometry">
            <mxPoint x="701" y="905" as="sourcePoint" />
            <mxPoint x="751" y="855" as="targetPoint" />
          </mxGeometry>
        </mxCell>
        <mxCell id="eoQyR7euwlenSZiSCgOB-97" value="" style="endArrow=none;html=1;rounded=0;entryX=0.5;entryY=1;entryDx=0;entryDy=0;exitX=0.5;exitY=0;exitDx=0;exitDy=0;strokeWidth=2;" parent="1" source="eoQyR7euwlenSZiSCgOB-82" target="eoQyR7euwlenSZiSCgOB-64" edge="1">
          <mxGeometry width="50" height="50" relative="1" as="geometry">
            <mxPoint x="531" y="915" as="sourcePoint" />
            <mxPoint x="581" y="865" as="targetPoint" />
          </mxGeometry>
        </mxCell>
        <mxCell id="eoQyR7euwlenSZiSCgOB-98" value="" style="endArrow=none;html=1;rounded=0;exitX=1;exitY=0.5;exitDx=0;exitDy=0;entryX=0;entryY=0.5;entryDx=0;entryDy=0;strokeWidth=2;" parent="1" source="eoQyR7euwlenSZiSCgOB-8" target="eoQyR7euwlenSZiSCgOB-54" edge="1">
          <mxGeometry width="50" height="50" relative="1" as="geometry">
            <mxPoint x="507" y="493" as="sourcePoint" />
            <mxPoint x="557" y="443" as="targetPoint" />
          </mxGeometry>
        </mxCell>
        <mxCell id="eoQyR7euwlenSZiSCgOB-99" value="" style="endArrow=none;html=1;rounded=0;exitX=1;exitY=0.5;exitDx=0;exitDy=0;entryX=0;entryY=0.5;entryDx=0;entryDy=0;strokeWidth=2;" parent="1" source="eoQyR7euwlenSZiSCgOB-12" target="eoQyR7euwlenSZiSCgOB-58" edge="1">
          <mxGeometry width="50" height="50" relative="1" as="geometry">
            <mxPoint x="517" y="613" as="sourcePoint" />
            <mxPoint x="567" y="563" as="targetPoint" />
          </mxGeometry>
        </mxCell>
        <mxCell id="eoQyR7euwlenSZiSCgOB-100" value="" style="endArrow=none;html=1;rounded=0;exitX=1;exitY=0.5;exitDx=0;exitDy=0;entryX=0;entryY=0.5;entryDx=0;entryDy=0;strokeWidth=2;" parent="1" source="eoQyR7euwlenSZiSCgOB-15" target="eoQyR7euwlenSZiSCgOB-61" edge="1">
          <mxGeometry width="50" height="50" relative="1" as="geometry">
            <mxPoint x="537" y="763" as="sourcePoint" />
            <mxPoint x="587" y="713" as="targetPoint" />
          </mxGeometry>
        </mxCell>
        <mxCell id="eoQyR7euwlenSZiSCgOB-101" value="" style="endArrow=none;html=1;rounded=0;exitX=1;exitY=0.5;exitDx=0;exitDy=0;entryX=0;entryY=0.5;entryDx=0;entryDy=0;strokeWidth=2;" parent="1" source="eoQyR7euwlenSZiSCgOB-18" target="eoQyR7euwlenSZiSCgOB-64" edge="1">
          <mxGeometry width="50" height="50" relative="1" as="geometry">
            <mxPoint x="557" y="863" as="sourcePoint" />
            <mxPoint x="607" y="813" as="targetPoint" />
          </mxGeometry>
        </mxCell>
        <mxCell id="eoQyR7euwlenSZiSCgOB-102" value="" style="endArrow=none;html=1;rounded=0;exitX=1;exitY=0.5;exitDx=0;exitDy=0;entryX=0;entryY=0.5;entryDx=0;entryDy=0;strokeWidth=2;" parent="1" source="eoQyR7euwlenSZiSCgOB-36" target="eoQyR7euwlenSZiSCgOB-82" edge="1">
          <mxGeometry width="50" height="50" relative="1" as="geometry">
            <mxPoint x="537" y="983" as="sourcePoint" />
            <mxPoint x="587" y="933" as="targetPoint" />
          </mxGeometry>
        </mxCell>
        <mxCell id="eoQyR7euwlenSZiSCgOB-103" value="" style="endArrow=none;html=1;rounded=0;exitX=1;exitY=0.5;exitDx=0;exitDy=0;entryX=0;entryY=0.5;entryDx=0;entryDy=0;strokeWidth=2;" parent="1" source="eoQyR7euwlenSZiSCgOB-39" target="eoQyR7euwlenSZiSCgOB-85" edge="1">
          <mxGeometry width="50" height="50" relative="1" as="geometry">
            <mxPoint x="547" y="1123" as="sourcePoint" />
            <mxPoint x="597" y="1073" as="targetPoint" />
          </mxGeometry>
        </mxCell>
        <mxCell id="eoQyR7euwlenSZiSCgOB-104" value="" style="rounded=0;whiteSpace=wrap;html=1;sketch=0;fillStyle=auto;strokeWidth=1;fontSize=20;aspect=fixed;fillColor=default;" parent="1" vertex="1">
          <mxGeometry x="-61" y="1589" width="1072.98" height="804.75" as="geometry" />
        </mxCell>
        <mxCell id="eoQyR7euwlenSZiSCgOB-105" value="" style="rounded=1;whiteSpace=wrap;html=1;dashed=1;strokeWidth=2;" parent="1" vertex="1">
          <mxGeometry x="114.5" y="2119" width="362.5" height="235" as="geometry" />
        </mxCell>
        <mxCell id="eoQyR7euwlenSZiSCgOB-106" value="" style="rounded=1;whiteSpace=wrap;html=1;dashed=1;strokeWidth=2;" parent="1" vertex="1">
          <mxGeometry x="114.5" y="1878" width="361.5" height="235" as="geometry" />
        </mxCell>
        <mxCell id="eoQyR7euwlenSZiSCgOB-107" value="" style="rounded=1;whiteSpace=wrap;html=1;dashed=1;strokeWidth=2;" parent="1" vertex="1">
          <mxGeometry x="114.5" y="1638" width="361.5" height="235" as="geometry" />
        </mxCell>
        <mxCell id="eoQyR7euwlenSZiSCgOB-108" style="edgeStyle=orthogonalEdgeStyle;rounded=0;orthogonalLoop=1;jettySize=auto;html=1;exitX=1;exitY=0.5;exitDx=0;exitDy=0;endArrow=none;endFill=0;strokeColor=default;strokeWidth=2;" parent="1" source="eoQyR7euwlenSZiSCgOB-109" target="eoQyR7euwlenSZiSCgOB-110" edge="1">
          <mxGeometry relative="1" as="geometry" />
        </mxCell>
        <mxCell id="eoQyR7euwlenSZiSCgOB-109" value="" style="whiteSpace=wrap;html=1;aspect=fixed;labelBackgroundColor=default;strokeColor=default;fontSize=13;fillColor=none;" parent="1" vertex="1">
          <mxGeometry x="137" y="1656" width="80" height="80" as="geometry" />
        </mxCell>
        <mxCell id="eoQyR7euwlenSZiSCgOB-110" value="" style="whiteSpace=wrap;html=1;aspect=fixed;labelBackgroundColor=default;strokeColor=default;fontSize=13;fillColor=none;" parent="1" vertex="1">
          <mxGeometry x="256.25" y="1656" width="80" height="80" as="geometry" />
        </mxCell>
        <mxCell id="eoQyR7euwlenSZiSCgOB-111" value="" style="whiteSpace=wrap;html=1;aspect=fixed;labelBackgroundColor=default;strokeColor=default;fontSize=13;fillColor=none;" parent="1" vertex="1">
          <mxGeometry x="376" y="1656" width="80" height="80" as="geometry" />
        </mxCell>
        <mxCell id="eoQyR7euwlenSZiSCgOB-112" style="edgeStyle=orthogonalEdgeStyle;rounded=0;orthogonalLoop=1;jettySize=auto;html=1;exitX=0.5;exitY=1;exitDx=0;exitDy=0;strokeWidth=2;endArrow=none;endFill=0;strokeColor=default;" parent="1" source="eoQyR7euwlenSZiSCgOB-113" target="eoQyR7euwlenSZiSCgOB-116" edge="1">
          <mxGeometry relative="1" as="geometry" />
        </mxCell>
        <mxCell id="eoQyR7euwlenSZiSCgOB-113" value="" style="whiteSpace=wrap;html=1;aspect=fixed;labelBackgroundColor=default;strokeColor=default;fontSize=13;fillColor=none;" parent="1" vertex="1">
          <mxGeometry x="137.25" y="1776" width="80" height="80" as="geometry" />
        </mxCell>
        <mxCell id="eoQyR7euwlenSZiSCgOB-114" value="" style="whiteSpace=wrap;html=1;aspect=fixed;labelBackgroundColor=default;strokeColor=default;fontSize=13;fillColor=none;" parent="1" vertex="1">
          <mxGeometry x="256.5" y="1776" width="80" height="80" as="geometry" />
        </mxCell>
        <mxCell id="eoQyR7euwlenSZiSCgOB-115" value="&lt;font style=&quot;font-size: 30px;&quot;&gt;HA&lt;/font&gt;" style="whiteSpace=wrap;html=1;aspect=fixed;labelBackgroundColor=default;strokeColor=default;fontSize=13;fillColor=none;" parent="1" vertex="1">
          <mxGeometry x="375.25" y="1776" width="80" height="80" as="geometry" />
        </mxCell>
        <mxCell id="eoQyR7euwlenSZiSCgOB-116" value="" style="whiteSpace=wrap;html=1;aspect=fixed;labelBackgroundColor=default;strokeColor=default;fontSize=13;fillColor=none;" parent="1" vertex="1">
          <mxGeometry x="137" y="1896" width="80" height="80" as="geometry" />
        </mxCell>
        <mxCell id="eoQyR7euwlenSZiSCgOB-117" value="" style="whiteSpace=wrap;html=1;aspect=fixed;labelBackgroundColor=default;strokeColor=default;fontSize=13;fillColor=none;" parent="1" vertex="1">
          <mxGeometry x="256.25" y="1896" width="80" height="80" as="geometry" />
        </mxCell>
        <mxCell id="eoQyR7euwlenSZiSCgOB-118" value="" style="whiteSpace=wrap;html=1;aspect=fixed;labelBackgroundColor=default;strokeColor=default;fontSize=13;fillColor=none;" parent="1" vertex="1">
          <mxGeometry x="375" y="1896" width="80" height="80" as="geometry" />
        </mxCell>
        <mxCell id="eoQyR7euwlenSZiSCgOB-119" value="" style="whiteSpace=wrap;html=1;aspect=fixed;labelBackgroundColor=default;strokeColor=default;fontSize=13;fillColor=none;" parent="1" vertex="1">
          <mxGeometry x="137" y="2016" width="80" height="80" as="geometry" />
        </mxCell>
        <mxCell id="eoQyR7euwlenSZiSCgOB-120" value="" style="whiteSpace=wrap;html=1;aspect=fixed;labelBackgroundColor=default;strokeColor=default;fontSize=13;fillColor=none;" parent="1" vertex="1">
          <mxGeometry x="256.5" y="2016" width="80" height="80" as="geometry" />
        </mxCell>
        <mxCell id="eoQyR7euwlenSZiSCgOB-121" value="" style="whiteSpace=wrap;html=1;aspect=fixed;labelBackgroundColor=default;strokeColor=default;fontSize=13;fillColor=default;" parent="1" vertex="1">
          <mxGeometry x="376" y="2016" width="80" height="80" as="geometry" />
        </mxCell>
        <mxCell id="eoQyR7euwlenSZiSCgOB-122" style="edgeStyle=orthogonalEdgeStyle;rounded=0;orthogonalLoop=1;jettySize=auto;html=1;exitX=0.5;exitY=1;exitDx=0;exitDy=0;strokeWidth=2;endArrow=none;endFill=0;strokeColor=default;entryX=0.5;entryY=0;entryDx=0;entryDy=0;" parent="1" source="eoQyR7euwlenSZiSCgOB-116" target="eoQyR7euwlenSZiSCgOB-119" edge="1">
          <mxGeometry relative="1" as="geometry">
            <mxPoint x="90.34000000000015" y="2136" as="sourcePoint" />
            <mxPoint x="90.34000000000015" y="2176" as="targetPoint" />
          </mxGeometry>
        </mxCell>
        <mxCell id="eoQyR7euwlenSZiSCgOB-123" style="edgeStyle=orthogonalEdgeStyle;rounded=0;orthogonalLoop=1;jettySize=auto;html=1;exitX=1;exitY=0.5;exitDx=0;exitDy=0;strokeWidth=2;endArrow=none;endFill=0;strokeColor=default;" parent="1" source="eoQyR7euwlenSZiSCgOB-119" edge="1">
          <mxGeometry relative="1" as="geometry">
            <mxPoint x="231.34000000000015" y="2141" as="sourcePoint" />
            <mxPoint x="256.34000000000015" y="2056" as="targetPoint" />
          </mxGeometry>
        </mxCell>
        <mxCell id="eoQyR7euwlenSZiSCgOB-124" style="edgeStyle=orthogonalEdgeStyle;rounded=0;orthogonalLoop=1;jettySize=auto;html=1;exitX=1;exitY=0.5;exitDx=0;exitDy=0;strokeWidth=2;endArrow=none;endFill=0;strokeColor=default;entryX=0;entryY=0.5;entryDx=0;entryDy=0;" parent="1" source="eoQyR7euwlenSZiSCgOB-120" target="eoQyR7euwlenSZiSCgOB-121" edge="1">
          <mxGeometry relative="1" as="geometry">
            <mxPoint x="325.34000000000015" y="2120" as="sourcePoint" />
            <mxPoint x="325.34000000000015" y="2160" as="targetPoint" />
          </mxGeometry>
        </mxCell>
        <mxCell id="eoQyR7euwlenSZiSCgOB-125" style="edgeStyle=orthogonalEdgeStyle;rounded=0;orthogonalLoop=1;jettySize=auto;html=1;strokeWidth=2;endArrow=none;endFill=0;strokeColor=default;entryX=0;entryY=0.5;entryDx=0;entryDy=0;" parent="1" source="eoQyR7euwlenSZiSCgOB-117" target="eoQyR7euwlenSZiSCgOB-118" edge="1">
          <mxGeometry relative="1" as="geometry">
            <mxPoint x="340.34000000000015" y="1993" as="sourcePoint" />
            <mxPoint x="372.34000000000015" y="1936" as="targetPoint" />
          </mxGeometry>
        </mxCell>
        <mxCell id="eoQyR7euwlenSZiSCgOB-126" style="edgeStyle=orthogonalEdgeStyle;rounded=0;orthogonalLoop=1;jettySize=auto;html=1;exitX=0.5;exitY=1;exitDx=0;exitDy=0;strokeWidth=2;endArrow=none;endFill=0;strokeColor=default;" parent="1" source="eoQyR7euwlenSZiSCgOB-118" target="eoQyR7euwlenSZiSCgOB-121" edge="1">
          <mxGeometry relative="1" as="geometry">
            <mxPoint x="355.34000000000015" y="1993" as="sourcePoint" />
            <mxPoint x="355.34000000000015" y="2033" as="targetPoint" />
            <Array as="points">
              <mxPoint x="415.34000000000015" y="2006" />
              <mxPoint x="415.34000000000015" y="2006" />
            </Array>
          </mxGeometry>
        </mxCell>
        <mxCell id="eoQyR7euwlenSZiSCgOB-127" style="edgeStyle=orthogonalEdgeStyle;rounded=0;orthogonalLoop=1;jettySize=auto;html=1;exitX=0.5;exitY=1;exitDx=0;exitDy=0;strokeWidth=2;endArrow=none;endFill=0;strokeColor=default;entryX=0.5;entryY=0;entryDx=0;entryDy=0;" parent="1" source="eoQyR7euwlenSZiSCgOB-115" target="eoQyR7euwlenSZiSCgOB-118" edge="1">
          <mxGeometry relative="1" as="geometry">
            <mxPoint x="378.34000000000015" y="1866" as="sourcePoint" />
            <mxPoint x="378.34000000000015" y="1906" as="targetPoint" />
          </mxGeometry>
        </mxCell>
        <mxCell id="eoQyR7euwlenSZiSCgOB-128" style="edgeStyle=orthogonalEdgeStyle;rounded=0;orthogonalLoop=1;jettySize=auto;html=1;exitX=0.5;exitY=1;exitDx=0;exitDy=0;strokeWidth=2;endArrow=none;endFill=0;strokeColor=default;entryX=0.5;entryY=0;entryDx=0;entryDy=0;" parent="1" source="eoQyR7euwlenSZiSCgOB-111" target="eoQyR7euwlenSZiSCgOB-115" edge="1">
          <mxGeometry relative="1" as="geometry">
            <mxPoint x="456.34000000000015" y="1747" as="sourcePoint" />
            <mxPoint x="456.34000000000015" y="1787" as="targetPoint" />
          </mxGeometry>
        </mxCell>
        <mxCell id="eoQyR7euwlenSZiSCgOB-129" style="edgeStyle=orthogonalEdgeStyle;rounded=0;orthogonalLoop=1;jettySize=auto;html=1;exitX=0.5;exitY=1;exitDx=0;exitDy=0;strokeWidth=2;endArrow=none;endFill=0;strokeColor=default;" parent="1" source="eoQyR7euwlenSZiSCgOB-110" target="eoQyR7euwlenSZiSCgOB-114" edge="1">
          <mxGeometry relative="1" as="geometry">
            <mxPoint x="343.34000000000015" y="1744" as="sourcePoint" />
            <mxPoint x="343.34000000000015" y="1784" as="targetPoint" />
          </mxGeometry>
        </mxCell>
        <mxCell id="eoQyR7euwlenSZiSCgOB-130" style="edgeStyle=orthogonalEdgeStyle;rounded=0;orthogonalLoop=1;jettySize=auto;html=1;exitX=1;exitY=0.5;exitDx=0;exitDy=0;strokeWidth=2;endArrow=none;endFill=0;strokeColor=default;entryX=0;entryY=0.5;entryDx=0;entryDy=0;" parent="1" source="eoQyR7euwlenSZiSCgOB-114" target="eoQyR7euwlenSZiSCgOB-115" edge="1">
          <mxGeometry relative="1" as="geometry">
            <mxPoint x="347.34000000000015" y="1813" as="sourcePoint" />
            <mxPoint x="347.34000000000015" y="1853" as="targetPoint" />
          </mxGeometry>
        </mxCell>
        <mxCell id="eoQyR7euwlenSZiSCgOB-131" style="edgeStyle=orthogonalEdgeStyle;rounded=0;orthogonalLoop=1;jettySize=auto;html=1;exitX=0.5;exitY=1;exitDx=0;exitDy=0;strokeWidth=2;endArrow=none;endFill=0;strokeColor=default;entryX=0.5;entryY=0;entryDx=0;entryDy=0;" parent="1" source="eoQyR7euwlenSZiSCgOB-114" target="eoQyR7euwlenSZiSCgOB-117" edge="1">
          <mxGeometry relative="1" as="geometry">
            <mxPoint x="304.34000000000015" y="1870" as="sourcePoint" />
            <mxPoint x="304.34000000000015" y="1910" as="targetPoint" />
          </mxGeometry>
        </mxCell>
        <mxCell id="eoQyR7euwlenSZiSCgOB-132" style="edgeStyle=orthogonalEdgeStyle;rounded=0;orthogonalLoop=1;jettySize=auto;html=1;strokeWidth=2;endArrow=none;endFill=0;strokeColor=default;entryX=0.5;entryY=0;entryDx=0;entryDy=0;" parent="1" source="eoQyR7euwlenSZiSCgOB-117" target="eoQyR7euwlenSZiSCgOB-120" edge="1">
          <mxGeometry relative="1" as="geometry">
            <mxPoint x="301.34000000000015" y="1989" as="sourcePoint" />
            <mxPoint x="296.34000000000015" y="2013" as="targetPoint" />
          </mxGeometry>
        </mxCell>
        <mxCell id="eoQyR7euwlenSZiSCgOB-133" style="edgeStyle=orthogonalEdgeStyle;rounded=0;orthogonalLoop=1;jettySize=auto;html=1;exitX=1;exitY=0.5;exitDx=0;exitDy=0;strokeWidth=2;endArrow=none;endFill=0;strokeColor=default;entryX=0;entryY=0.5;entryDx=0;entryDy=0;" parent="1" source="eoQyR7euwlenSZiSCgOB-116" target="eoQyR7euwlenSZiSCgOB-117" edge="1">
          <mxGeometry relative="1" as="geometry">
            <mxPoint x="221.34000000000015" y="1994" as="sourcePoint" />
            <mxPoint x="221.34000000000015" y="2034" as="targetPoint" />
          </mxGeometry>
        </mxCell>
        <mxCell id="eoQyR7euwlenSZiSCgOB-134" style="edgeStyle=orthogonalEdgeStyle;rounded=0;orthogonalLoop=1;jettySize=auto;html=1;exitX=1;exitY=0.5;exitDx=0;exitDy=0;strokeWidth=2;endArrow=none;endFill=0;strokeColor=default;entryX=0;entryY=0.5;entryDx=0;entryDy=0;" parent="1" source="eoQyR7euwlenSZiSCgOB-113" target="eoQyR7euwlenSZiSCgOB-114" edge="1">
          <mxGeometry relative="1" as="geometry">
            <mxPoint x="232.34000000000015" y="1807" as="sourcePoint" />
            <mxPoint x="232.34000000000015" y="1847" as="targetPoint" />
          </mxGeometry>
        </mxCell>
        <mxCell id="eoQyR7euwlenSZiSCgOB-135" style="edgeStyle=orthogonalEdgeStyle;rounded=0;orthogonalLoop=1;jettySize=auto;html=1;exitX=0.5;exitY=1;exitDx=0;exitDy=0;strokeWidth=2;endArrow=none;endFill=0;strokeColor=default;" parent="1" source="eoQyR7euwlenSZiSCgOB-109" edge="1">
          <mxGeometry relative="1" as="geometry">
            <mxPoint x="155.34000000000015" y="1749" as="sourcePoint" />
            <mxPoint x="177.34000000000015" y="1775" as="targetPoint" />
          </mxGeometry>
        </mxCell>
        <mxCell id="eoQyR7euwlenSZiSCgOB-136" style="edgeStyle=orthogonalEdgeStyle;rounded=0;orthogonalLoop=1;jettySize=auto;html=1;exitX=1;exitY=0.5;exitDx=0;exitDy=0;strokeWidth=2;endArrow=none;endFill=0;strokeColor=default;entryX=0;entryY=0.5;entryDx=0;entryDy=0;" parent="1" source="eoQyR7euwlenSZiSCgOB-110" target="eoQyR7euwlenSZiSCgOB-111" edge="1">
          <mxGeometry relative="1" as="geometry">
            <mxPoint x="354.34000000000015" y="1724" as="sourcePoint" />
            <mxPoint x="354.34000000000015" y="1764" as="targetPoint" />
          </mxGeometry>
        </mxCell>
        <mxCell id="eoQyR7euwlenSZiSCgOB-137" value="" style="whiteSpace=wrap;html=1;aspect=fixed;labelBackgroundColor=default;strokeColor=default;fontSize=13;fillColor=none;" parent="1" vertex="1">
          <mxGeometry x="137" y="2135" width="80" height="80" as="geometry" />
        </mxCell>
        <mxCell id="eoQyR7euwlenSZiSCgOB-138" value="" style="whiteSpace=wrap;html=1;aspect=fixed;labelBackgroundColor=default;strokeColor=default;fontSize=13;fillColor=none;" parent="1" vertex="1">
          <mxGeometry x="256.25" y="2135" width="80" height="80" as="geometry" />
        </mxCell>
        <mxCell id="eoQyR7euwlenSZiSCgOB-139" value="" style="whiteSpace=wrap;html=1;aspect=fixed;labelBackgroundColor=default;strokeColor=default;fontSize=13;fillColor=none;" parent="1" vertex="1">
          <mxGeometry x="375" y="2135" width="80" height="80" as="geometry" />
        </mxCell>
        <mxCell id="eoQyR7euwlenSZiSCgOB-140" value="" style="whiteSpace=wrap;html=1;aspect=fixed;labelBackgroundColor=default;strokeColor=default;fontSize=13;fillColor=none;" parent="1" vertex="1">
          <mxGeometry x="137" y="2255" width="80" height="80" as="geometry" />
        </mxCell>
        <mxCell id="eoQyR7euwlenSZiSCgOB-141" value="" style="whiteSpace=wrap;html=1;aspect=fixed;labelBackgroundColor=default;strokeColor=default;fontSize=13;fillColor=none;" parent="1" vertex="1">
          <mxGeometry x="256.5" y="2255" width="80" height="80" as="geometry" />
        </mxCell>
        <mxCell id="eoQyR7euwlenSZiSCgOB-142" value="" style="whiteSpace=wrap;html=1;aspect=fixed;labelBackgroundColor=default;strokeColor=default;fontSize=13;fillColor=default;" parent="1" vertex="1">
          <mxGeometry x="376" y="2255" width="80" height="80" as="geometry" />
        </mxCell>
        <mxCell id="eoQyR7euwlenSZiSCgOB-143" style="edgeStyle=orthogonalEdgeStyle;rounded=0;orthogonalLoop=1;jettySize=auto;html=1;exitX=0.5;exitY=1;exitDx=0;exitDy=0;strokeWidth=2;endArrow=none;endFill=0;strokeColor=default;entryX=0.5;entryY=0;entryDx=0;entryDy=0;" parent="1" source="eoQyR7euwlenSZiSCgOB-137" target="eoQyR7euwlenSZiSCgOB-140" edge="1">
          <mxGeometry relative="1" as="geometry">
            <mxPoint x="90.34000000000015" y="2375" as="sourcePoint" />
            <mxPoint x="90.34000000000015" y="2415" as="targetPoint" />
          </mxGeometry>
        </mxCell>
        <mxCell id="eoQyR7euwlenSZiSCgOB-144" style="edgeStyle=orthogonalEdgeStyle;rounded=0;orthogonalLoop=1;jettySize=auto;html=1;exitX=1;exitY=0.5;exitDx=0;exitDy=0;strokeWidth=2;endArrow=none;endFill=0;strokeColor=default;" parent="1" source="eoQyR7euwlenSZiSCgOB-140" edge="1">
          <mxGeometry relative="1" as="geometry">
            <mxPoint x="231.34000000000015" y="2380" as="sourcePoint" />
            <mxPoint x="256.34000000000015" y="2295" as="targetPoint" />
          </mxGeometry>
        </mxCell>
        <mxCell id="eoQyR7euwlenSZiSCgOB-145" style="edgeStyle=orthogonalEdgeStyle;rounded=0;orthogonalLoop=1;jettySize=auto;html=1;exitX=1;exitY=0.5;exitDx=0;exitDy=0;strokeWidth=2;endArrow=none;endFill=0;strokeColor=default;entryX=0;entryY=0.5;entryDx=0;entryDy=0;" parent="1" source="eoQyR7euwlenSZiSCgOB-141" target="eoQyR7euwlenSZiSCgOB-142" edge="1">
          <mxGeometry relative="1" as="geometry">
            <mxPoint x="325.34000000000015" y="2359" as="sourcePoint" />
            <mxPoint x="325.34000000000015" y="2399" as="targetPoint" />
          </mxGeometry>
        </mxCell>
        <mxCell id="eoQyR7euwlenSZiSCgOB-146" style="edgeStyle=orthogonalEdgeStyle;rounded=0;orthogonalLoop=1;jettySize=auto;html=1;strokeWidth=2;endArrow=none;endFill=0;strokeColor=default;entryX=0;entryY=0.5;entryDx=0;entryDy=0;" parent="1" source="eoQyR7euwlenSZiSCgOB-138" target="eoQyR7euwlenSZiSCgOB-139" edge="1">
          <mxGeometry relative="1" as="geometry">
            <mxPoint x="340.34000000000015" y="2232" as="sourcePoint" />
            <mxPoint x="372.34000000000015" y="2175" as="targetPoint" />
          </mxGeometry>
        </mxCell>
        <mxCell id="eoQyR7euwlenSZiSCgOB-147" style="edgeStyle=orthogonalEdgeStyle;rounded=0;orthogonalLoop=1;jettySize=auto;html=1;exitX=0.5;exitY=1;exitDx=0;exitDy=0;strokeWidth=2;endArrow=none;endFill=0;strokeColor=default;" parent="1" source="eoQyR7euwlenSZiSCgOB-139" target="eoQyR7euwlenSZiSCgOB-142" edge="1">
          <mxGeometry relative="1" as="geometry">
            <mxPoint x="355.34000000000015" y="2232" as="sourcePoint" />
            <mxPoint x="355.34000000000015" y="2272" as="targetPoint" />
            <Array as="points">
              <mxPoint x="415.34000000000015" y="2245" />
              <mxPoint x="415.34000000000015" y="2245" />
            </Array>
          </mxGeometry>
        </mxCell>
        <mxCell id="eoQyR7euwlenSZiSCgOB-148" style="edgeStyle=orthogonalEdgeStyle;rounded=0;orthogonalLoop=1;jettySize=auto;html=1;strokeWidth=2;endArrow=none;endFill=0;strokeColor=default;entryX=0.5;entryY=0;entryDx=0;entryDy=0;" parent="1" source="eoQyR7euwlenSZiSCgOB-138" target="eoQyR7euwlenSZiSCgOB-141" edge="1">
          <mxGeometry relative="1" as="geometry">
            <mxPoint x="301.34000000000015" y="2228" as="sourcePoint" />
            <mxPoint x="296.34000000000015" y="2252" as="targetPoint" />
          </mxGeometry>
        </mxCell>
        <mxCell id="eoQyR7euwlenSZiSCgOB-149" style="edgeStyle=orthogonalEdgeStyle;rounded=0;orthogonalLoop=1;jettySize=auto;html=1;exitX=1;exitY=0.5;exitDx=0;exitDy=0;strokeWidth=2;endArrow=none;endFill=0;strokeColor=default;entryX=0;entryY=0.5;entryDx=0;entryDy=0;" parent="1" source="eoQyR7euwlenSZiSCgOB-137" target="eoQyR7euwlenSZiSCgOB-138" edge="1">
          <mxGeometry relative="1" as="geometry">
            <mxPoint x="221.34000000000015" y="2233" as="sourcePoint" />
            <mxPoint x="221.34000000000015" y="2273" as="targetPoint" />
          </mxGeometry>
        </mxCell>
        <mxCell id="eoQyR7euwlenSZiSCgOB-150" value="" style="endArrow=none;html=1;rounded=0;entryX=0.5;entryY=1;entryDx=0;entryDy=0;exitX=0.516;exitY=0;exitDx=0;exitDy=0;exitPerimeter=0;strokeWidth=2;" parent="1" source="eoQyR7euwlenSZiSCgOB-139" target="eoQyR7euwlenSZiSCgOB-121" edge="1">
          <mxGeometry width="50" height="50" relative="1" as="geometry">
            <mxPoint x="359.34000000000015" y="2160" as="sourcePoint" />
            <mxPoint x="409.34000000000015" y="2110" as="targetPoint" />
          </mxGeometry>
        </mxCell>
        <mxCell id="eoQyR7euwlenSZiSCgOB-151" value="" style="endArrow=none;html=1;rounded=0;entryX=0.5;entryY=1;entryDx=0;entryDy=0;strokeWidth=2;" parent="1" source="eoQyR7euwlenSZiSCgOB-138" target="eoQyR7euwlenSZiSCgOB-120" edge="1">
          <mxGeometry width="50" height="50" relative="1" as="geometry">
            <mxPoint x="279.34000000000015" y="2160" as="sourcePoint" />
            <mxPoint x="329.34000000000015" y="2110" as="targetPoint" />
          </mxGeometry>
        </mxCell>
        <mxCell id="eoQyR7euwlenSZiSCgOB-152" value="" style="endArrow=none;html=1;rounded=0;entryX=0.5;entryY=1;entryDx=0;entryDy=0;exitX=0.5;exitY=0;exitDx=0;exitDy=0;strokeWidth=2;" parent="1" source="eoQyR7euwlenSZiSCgOB-137" target="eoQyR7euwlenSZiSCgOB-119" edge="1">
          <mxGeometry width="50" height="50" relative="1" as="geometry">
            <mxPoint x="109.34000000000015" y="2170" as="sourcePoint" />
            <mxPoint x="159.34000000000015" y="2120" as="targetPoint" />
          </mxGeometry>
        </mxCell>
        <mxCell id="eoQyR7euwlenSZiSCgOB-153" value="" style="rounded=1;whiteSpace=wrap;html=1;dashed=1;strokeWidth=2;" parent="1" vertex="1">
          <mxGeometry x="490.15999999999985" y="2119" width="362.5" height="235" as="geometry" />
        </mxCell>
        <mxCell id="eoQyR7euwlenSZiSCgOB-154" value="" style="rounded=1;whiteSpace=wrap;html=1;dashed=1;strokeWidth=2;" parent="1" vertex="1">
          <mxGeometry x="490.15999999999985" y="1878" width="361.5" height="235" as="geometry" />
        </mxCell>
        <mxCell id="eoQyR7euwlenSZiSCgOB-155" value="" style="rounded=1;whiteSpace=wrap;html=1;dashed=1;strokeWidth=2;" parent="1" vertex="1">
          <mxGeometry x="490.15999999999985" y="1638" width="361.5" height="235" as="geometry" />
        </mxCell>
        <mxCell id="eoQyR7euwlenSZiSCgOB-156" style="edgeStyle=orthogonalEdgeStyle;rounded=0;orthogonalLoop=1;jettySize=auto;html=1;exitX=1;exitY=0.5;exitDx=0;exitDy=0;endArrow=none;endFill=0;strokeColor=default;strokeWidth=2;" parent="1" source="eoQyR7euwlenSZiSCgOB-157" target="eoQyR7euwlenSZiSCgOB-158" edge="1">
          <mxGeometry relative="1" as="geometry" />
        </mxCell>
        <mxCell id="eoQyR7euwlenSZiSCgOB-157" value="" style="whiteSpace=wrap;html=1;aspect=fixed;labelBackgroundColor=default;strokeColor=default;fontSize=13;fillColor=none;" parent="1" vertex="1">
          <mxGeometry x="512.6599999999999" y="1656" width="80" height="80" as="geometry" />
        </mxCell>
        <mxCell id="eoQyR7euwlenSZiSCgOB-158" value="" style="whiteSpace=wrap;html=1;aspect=fixed;labelBackgroundColor=default;strokeColor=default;fontSize=13;fillColor=none;" parent="1" vertex="1">
          <mxGeometry x="631.9099999999999" y="1656" width="80" height="80" as="geometry" />
        </mxCell>
        <mxCell id="eoQyR7euwlenSZiSCgOB-159" value="" style="whiteSpace=wrap;html=1;aspect=fixed;labelBackgroundColor=default;strokeColor=default;fontSize=13;fillColor=none;" parent="1" vertex="1">
          <mxGeometry x="751.6599999999999" y="1656" width="80" height="80" as="geometry" />
        </mxCell>
        <mxCell id="eoQyR7euwlenSZiSCgOB-160" style="edgeStyle=orthogonalEdgeStyle;rounded=0;orthogonalLoop=1;jettySize=auto;html=1;exitX=0.5;exitY=1;exitDx=0;exitDy=0;strokeWidth=2;endArrow=none;endFill=0;strokeColor=default;" parent="1" source="eoQyR7euwlenSZiSCgOB-161" target="eoQyR7euwlenSZiSCgOB-164" edge="1">
          <mxGeometry relative="1" as="geometry" />
        </mxCell>
        <mxCell id="eoQyR7euwlenSZiSCgOB-161" value="" style="whiteSpace=wrap;html=1;aspect=fixed;labelBackgroundColor=default;strokeColor=default;fontSize=13;fillColor=none;" parent="1" vertex="1">
          <mxGeometry x="512.9099999999999" y="1776" width="80" height="80" as="geometry" />
        </mxCell>
        <mxCell id="eoQyR7euwlenSZiSCgOB-162" value="" style="whiteSpace=wrap;html=1;aspect=fixed;labelBackgroundColor=default;strokeColor=default;fontSize=13;fillColor=none;" parent="1" vertex="1">
          <mxGeometry x="632.1599999999999" y="1776" width="80" height="80" as="geometry" />
        </mxCell>
        <mxCell id="eoQyR7euwlenSZiSCgOB-163" value="" style="whiteSpace=wrap;html=1;aspect=fixed;labelBackgroundColor=default;strokeColor=default;fontSize=13;fillColor=none;" parent="1" vertex="1">
          <mxGeometry x="750.9099999999999" y="1776" width="80" height="80" as="geometry" />
        </mxCell>
        <mxCell id="eoQyR7euwlenSZiSCgOB-164" value="" style="whiteSpace=wrap;html=1;aspect=fixed;labelBackgroundColor=default;strokeColor=default;fontSize=13;fillColor=none;" parent="1" vertex="1">
          <mxGeometry x="512.6599999999999" y="1896" width="80" height="80" as="geometry" />
        </mxCell>
        <mxCell id="eoQyR7euwlenSZiSCgOB-165" value="" style="whiteSpace=wrap;html=1;aspect=fixed;labelBackgroundColor=default;strokeColor=default;fontSize=13;fillColor=none;" parent="1" vertex="1">
          <mxGeometry x="631.9099999999999" y="1896" width="80" height="80" as="geometry" />
        </mxCell>
        <mxCell id="eoQyR7euwlenSZiSCgOB-166" value="" style="whiteSpace=wrap;html=1;aspect=fixed;labelBackgroundColor=default;strokeColor=default;fontSize=13;fillColor=none;" parent="1" vertex="1">
          <mxGeometry x="750.6599999999999" y="1896" width="80" height="80" as="geometry" />
        </mxCell>
        <mxCell id="eoQyR7euwlenSZiSCgOB-167" value="" style="whiteSpace=wrap;html=1;aspect=fixed;labelBackgroundColor=default;strokeColor=default;fontSize=13;fillColor=none;" parent="1" vertex="1">
          <mxGeometry x="512.6599999999999" y="2016" width="80" height="80" as="geometry" />
        </mxCell>
        <mxCell id="eoQyR7euwlenSZiSCgOB-168" value="" style="whiteSpace=wrap;html=1;aspect=fixed;labelBackgroundColor=default;strokeColor=default;fontSize=13;fillColor=none;" parent="1" vertex="1">
          <mxGeometry x="632.1599999999999" y="2016" width="80" height="80" as="geometry" />
        </mxCell>
        <mxCell id="eoQyR7euwlenSZiSCgOB-169" value="" style="whiteSpace=wrap;html=1;aspect=fixed;labelBackgroundColor=default;strokeColor=default;fontSize=13;fillColor=default;" parent="1" vertex="1">
          <mxGeometry x="751.6599999999999" y="2016" width="80" height="80" as="geometry" />
        </mxCell>
        <mxCell id="eoQyR7euwlenSZiSCgOB-170" style="edgeStyle=orthogonalEdgeStyle;rounded=0;orthogonalLoop=1;jettySize=auto;html=1;exitX=0.5;exitY=1;exitDx=0;exitDy=0;strokeWidth=2;endArrow=none;endFill=0;strokeColor=default;entryX=0.5;entryY=0;entryDx=0;entryDy=0;" parent="1" source="eoQyR7euwlenSZiSCgOB-164" target="eoQyR7euwlenSZiSCgOB-167" edge="1">
          <mxGeometry relative="1" as="geometry">
            <mxPoint x="466" y="2136" as="sourcePoint" />
            <mxPoint x="466" y="2176" as="targetPoint" />
          </mxGeometry>
        </mxCell>
        <mxCell id="eoQyR7euwlenSZiSCgOB-171" style="edgeStyle=orthogonalEdgeStyle;rounded=0;orthogonalLoop=1;jettySize=auto;html=1;exitX=1;exitY=0.5;exitDx=0;exitDy=0;strokeWidth=2;endArrow=none;endFill=0;strokeColor=default;" parent="1" source="eoQyR7euwlenSZiSCgOB-167" edge="1">
          <mxGeometry relative="1" as="geometry">
            <mxPoint x="607" y="2141" as="sourcePoint" />
            <mxPoint x="632" y="2056" as="targetPoint" />
          </mxGeometry>
        </mxCell>
        <mxCell id="eoQyR7euwlenSZiSCgOB-172" style="edgeStyle=orthogonalEdgeStyle;rounded=0;orthogonalLoop=1;jettySize=auto;html=1;exitX=1;exitY=0.5;exitDx=0;exitDy=0;strokeWidth=2;endArrow=none;endFill=0;strokeColor=default;entryX=0;entryY=0.5;entryDx=0;entryDy=0;" parent="1" source="eoQyR7euwlenSZiSCgOB-168" target="eoQyR7euwlenSZiSCgOB-169" edge="1">
          <mxGeometry relative="1" as="geometry">
            <mxPoint x="701" y="2120" as="sourcePoint" />
            <mxPoint x="701" y="2160" as="targetPoint" />
          </mxGeometry>
        </mxCell>
        <mxCell id="eoQyR7euwlenSZiSCgOB-173" style="edgeStyle=orthogonalEdgeStyle;rounded=0;orthogonalLoop=1;jettySize=auto;html=1;strokeWidth=2;endArrow=none;endFill=0;strokeColor=default;entryX=0;entryY=0.5;entryDx=0;entryDy=0;" parent="1" source="eoQyR7euwlenSZiSCgOB-165" target="eoQyR7euwlenSZiSCgOB-166" edge="1">
          <mxGeometry relative="1" as="geometry">
            <mxPoint x="716" y="1993" as="sourcePoint" />
            <mxPoint x="748" y="1936" as="targetPoint" />
          </mxGeometry>
        </mxCell>
        <mxCell id="eoQyR7euwlenSZiSCgOB-174" style="edgeStyle=orthogonalEdgeStyle;rounded=0;orthogonalLoop=1;jettySize=auto;html=1;exitX=0.5;exitY=1;exitDx=0;exitDy=0;strokeWidth=2;endArrow=none;endFill=0;strokeColor=default;" parent="1" source="eoQyR7euwlenSZiSCgOB-166" target="eoQyR7euwlenSZiSCgOB-169" edge="1">
          <mxGeometry relative="1" as="geometry">
            <mxPoint x="731" y="1993" as="sourcePoint" />
            <mxPoint x="731" y="2033" as="targetPoint" />
            <Array as="points">
              <mxPoint x="791" y="2006" />
              <mxPoint x="791" y="2006" />
            </Array>
          </mxGeometry>
        </mxCell>
        <mxCell id="eoQyR7euwlenSZiSCgOB-175" style="edgeStyle=orthogonalEdgeStyle;rounded=0;orthogonalLoop=1;jettySize=auto;html=1;exitX=0.5;exitY=1;exitDx=0;exitDy=0;strokeWidth=2;endArrow=none;endFill=0;strokeColor=default;entryX=0.5;entryY=0;entryDx=0;entryDy=0;" parent="1" source="eoQyR7euwlenSZiSCgOB-163" target="eoQyR7euwlenSZiSCgOB-166" edge="1">
          <mxGeometry relative="1" as="geometry">
            <mxPoint x="754" y="1866" as="sourcePoint" />
            <mxPoint x="754" y="1906" as="targetPoint" />
          </mxGeometry>
        </mxCell>
        <mxCell id="eoQyR7euwlenSZiSCgOB-176" style="edgeStyle=orthogonalEdgeStyle;rounded=0;orthogonalLoop=1;jettySize=auto;html=1;exitX=0.5;exitY=1;exitDx=0;exitDy=0;strokeWidth=2;endArrow=none;endFill=0;strokeColor=default;entryX=0.5;entryY=0;entryDx=0;entryDy=0;" parent="1" source="eoQyR7euwlenSZiSCgOB-159" target="eoQyR7euwlenSZiSCgOB-163" edge="1">
          <mxGeometry relative="1" as="geometry">
            <mxPoint x="832" y="1747" as="sourcePoint" />
            <mxPoint x="832" y="1787" as="targetPoint" />
          </mxGeometry>
        </mxCell>
        <mxCell id="eoQyR7euwlenSZiSCgOB-177" style="edgeStyle=orthogonalEdgeStyle;rounded=0;orthogonalLoop=1;jettySize=auto;html=1;exitX=0.5;exitY=1;exitDx=0;exitDy=0;strokeWidth=2;endArrow=none;endFill=0;strokeColor=default;" parent="1" source="eoQyR7euwlenSZiSCgOB-158" target="eoQyR7euwlenSZiSCgOB-162" edge="1">
          <mxGeometry relative="1" as="geometry">
            <mxPoint x="719" y="1744" as="sourcePoint" />
            <mxPoint x="719" y="1784" as="targetPoint" />
          </mxGeometry>
        </mxCell>
        <mxCell id="eoQyR7euwlenSZiSCgOB-178" style="edgeStyle=orthogonalEdgeStyle;rounded=0;orthogonalLoop=1;jettySize=auto;html=1;exitX=1;exitY=0.5;exitDx=0;exitDy=0;strokeWidth=2;endArrow=none;endFill=0;strokeColor=default;entryX=0;entryY=0.5;entryDx=0;entryDy=0;" parent="1" source="eoQyR7euwlenSZiSCgOB-162" target="eoQyR7euwlenSZiSCgOB-163" edge="1">
          <mxGeometry relative="1" as="geometry">
            <mxPoint x="723" y="1813" as="sourcePoint" />
            <mxPoint x="723" y="1853" as="targetPoint" />
          </mxGeometry>
        </mxCell>
        <mxCell id="eoQyR7euwlenSZiSCgOB-179" style="edgeStyle=orthogonalEdgeStyle;rounded=0;orthogonalLoop=1;jettySize=auto;html=1;exitX=0.5;exitY=1;exitDx=0;exitDy=0;strokeWidth=2;endArrow=none;endFill=0;strokeColor=default;entryX=0.5;entryY=0;entryDx=0;entryDy=0;" parent="1" source="eoQyR7euwlenSZiSCgOB-162" target="eoQyR7euwlenSZiSCgOB-165" edge="1">
          <mxGeometry relative="1" as="geometry">
            <mxPoint x="680" y="1870" as="sourcePoint" />
            <mxPoint x="680" y="1910" as="targetPoint" />
          </mxGeometry>
        </mxCell>
        <mxCell id="eoQyR7euwlenSZiSCgOB-180" style="edgeStyle=orthogonalEdgeStyle;rounded=0;orthogonalLoop=1;jettySize=auto;html=1;strokeWidth=2;endArrow=none;endFill=0;strokeColor=default;entryX=0.5;entryY=0;entryDx=0;entryDy=0;" parent="1" source="eoQyR7euwlenSZiSCgOB-165" target="eoQyR7euwlenSZiSCgOB-168" edge="1">
          <mxGeometry relative="1" as="geometry">
            <mxPoint x="677" y="1989" as="sourcePoint" />
            <mxPoint x="672" y="2013" as="targetPoint" />
          </mxGeometry>
        </mxCell>
        <mxCell id="eoQyR7euwlenSZiSCgOB-181" style="edgeStyle=orthogonalEdgeStyle;rounded=0;orthogonalLoop=1;jettySize=auto;html=1;exitX=1;exitY=0.5;exitDx=0;exitDy=0;strokeWidth=2;endArrow=none;endFill=0;strokeColor=default;entryX=0;entryY=0.5;entryDx=0;entryDy=0;" parent="1" source="eoQyR7euwlenSZiSCgOB-164" target="eoQyR7euwlenSZiSCgOB-165" edge="1">
          <mxGeometry relative="1" as="geometry">
            <mxPoint x="597" y="1994" as="sourcePoint" />
            <mxPoint x="597" y="2034" as="targetPoint" />
          </mxGeometry>
        </mxCell>
        <mxCell id="eoQyR7euwlenSZiSCgOB-182" style="edgeStyle=orthogonalEdgeStyle;rounded=0;orthogonalLoop=1;jettySize=auto;html=1;exitX=1;exitY=0.5;exitDx=0;exitDy=0;strokeWidth=2;endArrow=none;endFill=0;strokeColor=default;entryX=0;entryY=0.5;entryDx=0;entryDy=0;" parent="1" source="eoQyR7euwlenSZiSCgOB-161" target="eoQyR7euwlenSZiSCgOB-162" edge="1">
          <mxGeometry relative="1" as="geometry">
            <mxPoint x="608" y="1807" as="sourcePoint" />
            <mxPoint x="608" y="1847" as="targetPoint" />
          </mxGeometry>
        </mxCell>
        <mxCell id="eoQyR7euwlenSZiSCgOB-183" style="edgeStyle=orthogonalEdgeStyle;rounded=0;orthogonalLoop=1;jettySize=auto;html=1;exitX=0.5;exitY=1;exitDx=0;exitDy=0;strokeWidth=2;endArrow=none;endFill=0;strokeColor=default;" parent="1" source="eoQyR7euwlenSZiSCgOB-157" edge="1">
          <mxGeometry relative="1" as="geometry">
            <mxPoint x="531" y="1749" as="sourcePoint" />
            <mxPoint x="553" y="1775" as="targetPoint" />
          </mxGeometry>
        </mxCell>
        <mxCell id="eoQyR7euwlenSZiSCgOB-184" style="edgeStyle=orthogonalEdgeStyle;rounded=0;orthogonalLoop=1;jettySize=auto;html=1;exitX=1;exitY=0.5;exitDx=0;exitDy=0;strokeWidth=2;endArrow=none;endFill=0;strokeColor=default;entryX=0;entryY=0.5;entryDx=0;entryDy=0;" parent="1" source="eoQyR7euwlenSZiSCgOB-158" target="eoQyR7euwlenSZiSCgOB-159" edge="1">
          <mxGeometry relative="1" as="geometry">
            <mxPoint x="730" y="1724" as="sourcePoint" />
            <mxPoint x="730" y="1764" as="targetPoint" />
          </mxGeometry>
        </mxCell>
        <mxCell id="eoQyR7euwlenSZiSCgOB-185" value="" style="whiteSpace=wrap;html=1;aspect=fixed;labelBackgroundColor=default;strokeColor=default;fontSize=13;fillColor=none;" parent="1" vertex="1">
          <mxGeometry x="512.6599999999999" y="2135" width="80" height="80" as="geometry" />
        </mxCell>
        <mxCell id="eoQyR7euwlenSZiSCgOB-186" value="" style="whiteSpace=wrap;html=1;aspect=fixed;labelBackgroundColor=default;strokeColor=default;fontSize=13;fillColor=none;" parent="1" vertex="1">
          <mxGeometry x="631.9099999999999" y="2135" width="80" height="80" as="geometry" />
        </mxCell>
        <mxCell id="eoQyR7euwlenSZiSCgOB-187" value="" style="whiteSpace=wrap;html=1;aspect=fixed;labelBackgroundColor=default;strokeColor=default;fontSize=13;fillColor=none;" parent="1" vertex="1">
          <mxGeometry x="750.6599999999999" y="2135" width="80" height="80" as="geometry" />
        </mxCell>
        <mxCell id="eoQyR7euwlenSZiSCgOB-188" value="" style="whiteSpace=wrap;html=1;aspect=fixed;labelBackgroundColor=default;strokeColor=default;fontSize=13;fillColor=none;" parent="1" vertex="1">
          <mxGeometry x="512.6599999999999" y="2255" width="80" height="80" as="geometry" />
        </mxCell>
        <mxCell id="eoQyR7euwlenSZiSCgOB-189" value="" style="whiteSpace=wrap;html=1;aspect=fixed;labelBackgroundColor=default;strokeColor=default;fontSize=13;fillColor=none;" parent="1" vertex="1">
          <mxGeometry x="632.1599999999999" y="2255" width="80" height="80" as="geometry" />
        </mxCell>
        <mxCell id="eoQyR7euwlenSZiSCgOB-190" value="" style="whiteSpace=wrap;html=1;aspect=fixed;labelBackgroundColor=default;strokeColor=default;fontSize=13;fillColor=default;" parent="1" vertex="1">
          <mxGeometry x="751.6599999999999" y="2255" width="80" height="80" as="geometry" />
        </mxCell>
        <mxCell id="eoQyR7euwlenSZiSCgOB-191" style="edgeStyle=orthogonalEdgeStyle;rounded=0;orthogonalLoop=1;jettySize=auto;html=1;exitX=0.5;exitY=1;exitDx=0;exitDy=0;strokeWidth=2;endArrow=none;endFill=0;strokeColor=default;entryX=0.5;entryY=0;entryDx=0;entryDy=0;" parent="1" source="eoQyR7euwlenSZiSCgOB-185" target="eoQyR7euwlenSZiSCgOB-188" edge="1">
          <mxGeometry relative="1" as="geometry">
            <mxPoint x="466" y="2375" as="sourcePoint" />
            <mxPoint x="466" y="2415" as="targetPoint" />
          </mxGeometry>
        </mxCell>
        <mxCell id="eoQyR7euwlenSZiSCgOB-192" style="edgeStyle=orthogonalEdgeStyle;rounded=0;orthogonalLoop=1;jettySize=auto;html=1;exitX=1;exitY=0.5;exitDx=0;exitDy=0;strokeWidth=2;endArrow=none;endFill=0;strokeColor=default;" parent="1" source="eoQyR7euwlenSZiSCgOB-188" edge="1">
          <mxGeometry relative="1" as="geometry">
            <mxPoint x="607" y="2380" as="sourcePoint" />
            <mxPoint x="632" y="2295" as="targetPoint" />
          </mxGeometry>
        </mxCell>
        <mxCell id="eoQyR7euwlenSZiSCgOB-193" style="edgeStyle=orthogonalEdgeStyle;rounded=0;orthogonalLoop=1;jettySize=auto;html=1;exitX=1;exitY=0.5;exitDx=0;exitDy=0;strokeWidth=2;endArrow=none;endFill=0;strokeColor=default;entryX=0;entryY=0.5;entryDx=0;entryDy=0;" parent="1" source="eoQyR7euwlenSZiSCgOB-189" target="eoQyR7euwlenSZiSCgOB-190" edge="1">
          <mxGeometry relative="1" as="geometry">
            <mxPoint x="701" y="2359" as="sourcePoint" />
            <mxPoint x="701" y="2399" as="targetPoint" />
          </mxGeometry>
        </mxCell>
        <mxCell id="eoQyR7euwlenSZiSCgOB-194" style="edgeStyle=orthogonalEdgeStyle;rounded=0;orthogonalLoop=1;jettySize=auto;html=1;strokeWidth=2;endArrow=none;endFill=0;strokeColor=default;entryX=0;entryY=0.5;entryDx=0;entryDy=0;" parent="1" source="eoQyR7euwlenSZiSCgOB-186" target="eoQyR7euwlenSZiSCgOB-187" edge="1">
          <mxGeometry relative="1" as="geometry">
            <mxPoint x="716" y="2232" as="sourcePoint" />
            <mxPoint x="748" y="2175" as="targetPoint" />
          </mxGeometry>
        </mxCell>
        <mxCell id="eoQyR7euwlenSZiSCgOB-195" style="edgeStyle=orthogonalEdgeStyle;rounded=0;orthogonalLoop=1;jettySize=auto;html=1;exitX=0.5;exitY=1;exitDx=0;exitDy=0;strokeWidth=2;endArrow=none;endFill=0;strokeColor=default;" parent="1" source="eoQyR7euwlenSZiSCgOB-187" target="eoQyR7euwlenSZiSCgOB-190" edge="1">
          <mxGeometry relative="1" as="geometry">
            <mxPoint x="731" y="2232" as="sourcePoint" />
            <mxPoint x="731" y="2272" as="targetPoint" />
            <Array as="points">
              <mxPoint x="791" y="2245" />
              <mxPoint x="791" y="2245" />
            </Array>
          </mxGeometry>
        </mxCell>
        <mxCell id="eoQyR7euwlenSZiSCgOB-196" style="edgeStyle=orthogonalEdgeStyle;rounded=0;orthogonalLoop=1;jettySize=auto;html=1;strokeWidth=2;endArrow=none;endFill=0;strokeColor=default;entryX=0.5;entryY=0;entryDx=0;entryDy=0;" parent="1" source="eoQyR7euwlenSZiSCgOB-186" target="eoQyR7euwlenSZiSCgOB-189" edge="1">
          <mxGeometry relative="1" as="geometry">
            <mxPoint x="677" y="2228" as="sourcePoint" />
            <mxPoint x="672" y="2252" as="targetPoint" />
          </mxGeometry>
        </mxCell>
        <mxCell id="eoQyR7euwlenSZiSCgOB-197" style="edgeStyle=orthogonalEdgeStyle;rounded=0;orthogonalLoop=1;jettySize=auto;html=1;exitX=1;exitY=0.5;exitDx=0;exitDy=0;strokeWidth=2;endArrow=none;endFill=0;strokeColor=default;entryX=0;entryY=0.5;entryDx=0;entryDy=0;" parent="1" source="eoQyR7euwlenSZiSCgOB-185" target="eoQyR7euwlenSZiSCgOB-186" edge="1">
          <mxGeometry relative="1" as="geometry">
            <mxPoint x="597" y="2233" as="sourcePoint" />
            <mxPoint x="597" y="2273" as="targetPoint" />
          </mxGeometry>
        </mxCell>
        <mxCell id="eoQyR7euwlenSZiSCgOB-198" value="" style="endArrow=none;html=1;rounded=0;entryX=0.5;entryY=1;entryDx=0;entryDy=0;exitX=0.516;exitY=0;exitDx=0;exitDy=0;exitPerimeter=0;strokeWidth=2;" parent="1" source="eoQyR7euwlenSZiSCgOB-187" target="eoQyR7euwlenSZiSCgOB-169" edge="1">
          <mxGeometry width="50" height="50" relative="1" as="geometry">
            <mxPoint x="735" y="2160" as="sourcePoint" />
            <mxPoint x="785" y="2110" as="targetPoint" />
          </mxGeometry>
        </mxCell>
        <mxCell id="eoQyR7euwlenSZiSCgOB-199" value="" style="endArrow=none;html=1;rounded=0;entryX=0.5;entryY=1;entryDx=0;entryDy=0;strokeWidth=2;" parent="1" source="eoQyR7euwlenSZiSCgOB-186" target="eoQyR7euwlenSZiSCgOB-168" edge="1">
          <mxGeometry width="50" height="50" relative="1" as="geometry">
            <mxPoint x="655" y="2160" as="sourcePoint" />
            <mxPoint x="705" y="2110" as="targetPoint" />
          </mxGeometry>
        </mxCell>
        <mxCell id="eoQyR7euwlenSZiSCgOB-200" value="" style="endArrow=none;html=1;rounded=0;entryX=0.5;entryY=1;entryDx=0;entryDy=0;exitX=0.5;exitY=0;exitDx=0;exitDy=0;strokeWidth=2;" parent="1" source="eoQyR7euwlenSZiSCgOB-185" target="eoQyR7euwlenSZiSCgOB-167" edge="1">
          <mxGeometry width="50" height="50" relative="1" as="geometry">
            <mxPoint x="485" y="2170" as="sourcePoint" />
            <mxPoint x="535" y="2120" as="targetPoint" />
          </mxGeometry>
        </mxCell>
        <mxCell id="eoQyR7euwlenSZiSCgOB-201" value="" style="endArrow=none;html=1;rounded=0;exitX=1;exitY=0.5;exitDx=0;exitDy=0;entryX=0;entryY=0.5;entryDx=0;entryDy=0;strokeWidth=2;" parent="1" source="eoQyR7euwlenSZiSCgOB-111" target="eoQyR7euwlenSZiSCgOB-157" edge="1">
          <mxGeometry width="50" height="50" relative="1" as="geometry">
            <mxPoint x="461" y="1748" as="sourcePoint" />
            <mxPoint x="511" y="1698" as="targetPoint" />
          </mxGeometry>
        </mxCell>
        <mxCell id="eoQyR7euwlenSZiSCgOB-202" value="" style="endArrow=none;html=1;rounded=0;exitX=1;exitY=0.5;exitDx=0;exitDy=0;entryX=0;entryY=0.5;entryDx=0;entryDy=0;strokeWidth=2;" parent="1" source="eoQyR7euwlenSZiSCgOB-115" target="eoQyR7euwlenSZiSCgOB-161" edge="1">
          <mxGeometry width="50" height="50" relative="1" as="geometry">
            <mxPoint x="471" y="1868" as="sourcePoint" />
            <mxPoint x="521" y="1818" as="targetPoint" />
          </mxGeometry>
        </mxCell>
        <mxCell id="eoQyR7euwlenSZiSCgOB-203" value="" style="endArrow=none;html=1;rounded=0;exitX=1;exitY=0.5;exitDx=0;exitDy=0;entryX=0;entryY=0.5;entryDx=0;entryDy=0;strokeWidth=2;" parent="1" source="eoQyR7euwlenSZiSCgOB-118" target="eoQyR7euwlenSZiSCgOB-164" edge="1">
          <mxGeometry width="50" height="50" relative="1" as="geometry">
            <mxPoint x="491" y="2018" as="sourcePoint" />
            <mxPoint x="541" y="1968" as="targetPoint" />
          </mxGeometry>
        </mxCell>
        <mxCell id="eoQyR7euwlenSZiSCgOB-204" value="" style="endArrow=none;html=1;rounded=0;exitX=1;exitY=0.5;exitDx=0;exitDy=0;entryX=0;entryY=0.5;entryDx=0;entryDy=0;strokeWidth=2;" parent="1" source="eoQyR7euwlenSZiSCgOB-121" target="eoQyR7euwlenSZiSCgOB-167" edge="1">
          <mxGeometry width="50" height="50" relative="1" as="geometry">
            <mxPoint x="511" y="2118" as="sourcePoint" />
            <mxPoint x="561" y="2068" as="targetPoint" />
          </mxGeometry>
        </mxCell>
        <mxCell id="eoQyR7euwlenSZiSCgOB-205" value="" style="endArrow=none;html=1;rounded=0;exitX=1;exitY=0.5;exitDx=0;exitDy=0;entryX=0;entryY=0.5;entryDx=0;entryDy=0;strokeWidth=2;" parent="1" source="eoQyR7euwlenSZiSCgOB-139" target="eoQyR7euwlenSZiSCgOB-185" edge="1">
          <mxGeometry width="50" height="50" relative="1" as="geometry">
            <mxPoint x="491" y="2238" as="sourcePoint" />
            <mxPoint x="541" y="2188" as="targetPoint" />
          </mxGeometry>
        </mxCell>
        <mxCell id="eoQyR7euwlenSZiSCgOB-206" value="" style="endArrow=none;html=1;rounded=0;exitX=1;exitY=0.5;exitDx=0;exitDy=0;entryX=0;entryY=0.5;entryDx=0;entryDy=0;strokeWidth=2;" parent="1" source="eoQyR7euwlenSZiSCgOB-142" target="eoQyR7euwlenSZiSCgOB-188" edge="1">
          <mxGeometry width="50" height="50" relative="1" as="geometry">
            <mxPoint x="501" y="2378" as="sourcePoint" />
            <mxPoint x="551" y="2328" as="targetPoint" />
          </mxGeometry>
        </mxCell>
        <mxCell id="eoQyR7euwlenSZiSCgOB-207" value="" style="endArrow=classic;html=1;rounded=0;strokeWidth=2;exitX=0;exitY=0;exitDx=0;exitDy=0;" parent="1" source="eoQyR7euwlenSZiSCgOB-115" edge="1">
          <mxGeometry width="50" height="50" relative="1" as="geometry">
            <mxPoint x="377" y="1771" as="sourcePoint" />
            <mxPoint x="399" y="1700" as="targetPoint" />
          </mxGeometry>
        </mxCell>
        <mxCell id="eoQyR7euwlenSZiSCgOB-208" value="" style="endArrow=classic;html=1;rounded=0;exitX=0;exitY=0;exitDx=0;exitDy=0;strokeWidth=2;entryX=0.412;entryY=0.762;entryDx=0;entryDy=0;entryPerimeter=0;" parent="1" source="eoQyR7euwlenSZiSCgOB-115" target="eoQyR7euwlenSZiSCgOB-109" edge="1">
          <mxGeometry width="50" height="50" relative="1" as="geometry">
            <mxPoint x="376" y="1790" as="sourcePoint" />
            <mxPoint x="365" y="1714" as="targetPoint" />
          </mxGeometry>
        </mxCell>
        <mxCell id="eoQyR7euwlenSZiSCgOB-209" value="" style="endArrow=classic;html=1;rounded=0;exitX=0;exitY=0;exitDx=0;exitDy=0;strokeWidth=2;entryX=0.369;entryY=0.5;entryDx=0;entryDy=0;entryPerimeter=0;" parent="1" source="eoQyR7euwlenSZiSCgOB-115" target="eoQyR7euwlenSZiSCgOB-114" edge="1">
          <mxGeometry width="50" height="50" relative="1" as="geometry">
            <mxPoint x="367.65999999999985" y="1800" as="sourcePoint" />
            <mxPoint x="236" y="1805" as="targetPoint" />
          </mxGeometry>
        </mxCell>
        <mxCell id="HFVsTXlP9Ub-2UcbBTZF-1" value="I" style="text;html=1;align=center;verticalAlign=middle;resizable=0;points=[];autosize=1;strokeColor=none;fillColor=none;fontSize=13;" parent="1" vertex="1">
          <mxGeometry x="1347.1699999999998" y="3846" width="30" height="30" as="geometry" />
        </mxCell>
        <mxCell id="HFVsTXlP9Ub-2UcbBTZF-2" value="" style="rounded=0;whiteSpace=wrap;html=1;sketch=0;fillStyle=auto;strokeWidth=1;fontSize=20;aspect=fixed;" parent="1" vertex="1">
          <mxGeometry x="337" y="3148" width="959.99" height="720" as="geometry" />
        </mxCell>
        <mxCell id="HFVsTXlP9Ub-2UcbBTZF-3" value="CA 1" style="rounded=0;whiteSpace=wrap;html=1;sketch=0;fillStyle=auto;strokeWidth=1;fontSize=20;" parent="1" vertex="1">
          <mxGeometry x="468.9100000000001" y="3277" width="107" height="56" as="geometry" />
        </mxCell>
        <mxCell id="HFVsTXlP9Ub-2UcbBTZF-4" value="CA 2" style="rounded=0;whiteSpace=wrap;html=1;sketch=0;fillStyle=auto;strokeWidth=1;fontSize=20;" parent="1" vertex="1">
          <mxGeometry x="626.6600000000001" y="3277" width="107" height="56" as="geometry" />
        </mxCell>
        <mxCell id="HFVsTXlP9Ub-2UcbBTZF-5" value="CA 3" style="rounded=0;whiteSpace=wrap;html=1;sketch=0;fillStyle=auto;strokeWidth=1;fontSize=20;" parent="1" vertex="1">
          <mxGeometry x="789.6600000000001" y="3277" width="107" height="56" as="geometry" />
        </mxCell>
        <mxCell id="HFVsTXlP9Ub-2UcbBTZF-6" value="CA 4" style="rounded=0;whiteSpace=wrap;html=1;sketch=0;fillStyle=auto;strokeWidth=1;fontSize=20;" parent="1" vertex="1">
          <mxGeometry x="939.1600000000001" y="3277" width="107" height="56" as="geometry" />
        </mxCell>
        <mxCell id="HFVsTXlP9Ub-2UcbBTZF-7" value="HA" style="rounded=0;whiteSpace=wrap;html=1;sketch=0;fillStyle=auto;strokeWidth=1;fontSize=20;" parent="1" vertex="1">
          <mxGeometry x="1097.66" y="3277" width="107" height="56" as="geometry" />
        </mxCell>
        <mxCell id="HFVsTXlP9Ub-2UcbBTZF-8" value="" style="endArrow=none;html=1;rounded=0;fontSize=18;strokeWidth=3;exitX=0.5;exitY=1;exitDx=0;exitDy=0;" parent="1" source="HFVsTXlP9Ub-2UcbBTZF-3" edge="1">
          <mxGeometry width="50" height="50" relative="1" as="geometry">
            <mxPoint x="457.9100000000001" y="3487" as="sourcePoint" />
            <mxPoint x="519" y="3756" as="targetPoint" />
          </mxGeometry>
        </mxCell>
        <mxCell id="HFVsTXlP9Ub-2UcbBTZF-9" value="" style="endArrow=none;html=1;rounded=0;fontSize=18;strokeWidth=3;exitX=0.5;exitY=1;exitDx=0;exitDy=0;" parent="1" source="HFVsTXlP9Ub-2UcbBTZF-4" edge="1">
          <mxGeometry width="50" height="50" relative="1" as="geometry">
            <mxPoint x="692.4100000000001" y="3347" as="sourcePoint" />
            <mxPoint x="680.6600000000001" y="3757" as="targetPoint" />
          </mxGeometry>
        </mxCell>
        <mxCell id="HFVsTXlP9Ub-2UcbBTZF-10" value="" style="endArrow=none;html=1;rounded=0;fontSize=18;strokeWidth=3;exitX=0.5;exitY=1;exitDx=0;exitDy=0;" parent="1" source="HFVsTXlP9Ub-2UcbBTZF-5" edge="1">
          <mxGeometry width="50" height="50" relative="1" as="geometry">
            <mxPoint x="857.6600000000001" y="3647" as="sourcePoint" />
            <mxPoint x="843.6600000000001" y="3757" as="targetPoint" />
          </mxGeometry>
        </mxCell>
        <mxCell id="HFVsTXlP9Ub-2UcbBTZF-11" value="" style="endArrow=none;html=1;rounded=0;fontSize=18;strokeWidth=3;exitX=0.5;exitY=1;exitDx=0;exitDy=0;" parent="1" source="HFVsTXlP9Ub-2UcbBTZF-6" edge="1">
          <mxGeometry width="50" height="50" relative="1" as="geometry">
            <mxPoint x="956.1600000000001" y="3507" as="sourcePoint" />
            <mxPoint x="992.1600000000001" y="3757" as="targetPoint" />
          </mxGeometry>
        </mxCell>
        <mxCell id="HFVsTXlP9Ub-2UcbBTZF-12" value="" style="endArrow=none;html=1;rounded=0;fontSize=18;strokeWidth=3;exitX=0.5;exitY=1;exitDx=0;exitDy=0;" parent="1" source="HFVsTXlP9Ub-2UcbBTZF-7" edge="1">
          <mxGeometry width="50" height="50" relative="1" as="geometry">
            <mxPoint x="1074.16" y="3577" as="sourcePoint" />
            <mxPoint x="1151.16" y="3757" as="targetPoint" />
          </mxGeometry>
        </mxCell>
        <mxCell id="HFVsTXlP9Ub-2UcbBTZF-13" value="" style="endArrow=classic;html=1;rounded=0;fontSize=16;" parent="1" edge="1">
          <mxGeometry width="50" height="50" relative="1" as="geometry">
            <mxPoint x="411.6600000000001" y="3357" as="sourcePoint" />
            <mxPoint x="411.6600000000001" y="3497" as="targetPoint" />
          </mxGeometry>
        </mxCell>
        <mxCell id="HFVsTXlP9Ub-2UcbBTZF-14" value="时间线" style="text;html=1;align=center;verticalAlign=middle;resizable=0;points=[];autosize=1;strokeColor=none;fillColor=none;fontSize=16;" parent="1" vertex="1">
          <mxGeometry x="345.6600000000001" y="3417" width="70" height="30" as="geometry" />
        </mxCell>
        <mxCell id="HFVsTXlP9Ub-2UcbBTZF-15" value="" style="endArrow=classic;html=1;rounded=0;fontSize=16;exitX=0.5;exitY=1;exitDx=0;exitDy=0;" parent="1" source="HFVsTXlP9Ub-2UcbBTZF-3" edge="1">
          <mxGeometry width="50" height="50" relative="1" as="geometry">
            <mxPoint x="531.6600000000001" y="3357" as="sourcePoint" />
            <mxPoint x="1150.66" y="3397" as="targetPoint" />
          </mxGeometry>
        </mxCell>
        <mxCell id="HFVsTXlP9Ub-2UcbBTZF-16" value="&lt;span style=&quot;font-size: 13px;&quot;&gt;GET_ModifiedData&lt;br&gt;&lt;/span&gt;" style="text;html=1;align=center;verticalAlign=middle;resizable=0;points=[];autosize=1;strokeColor=none;fillColor=none;fontSize=16;labelBackgroundColor=default;" parent="1" vertex="1">
          <mxGeometry x="549.4100000000001" y="3333" width="130" height="30" as="geometry" />
        </mxCell>
        <mxCell id="HFVsTXlP9Ub-2UcbBTZF-17" value="" style="endArrow=classic;html=1;rounded=0;fontSize=13;exitX=0.5;exitY=1;exitDx=0;exitDy=0;" parent="1" source="HFVsTXlP9Ub-2UcbBTZF-4" edge="1">
          <mxGeometry width="50" height="50" relative="1" as="geometry">
            <mxPoint x="851.6600000000001" y="3487" as="sourcePoint" />
            <mxPoint x="1150.66" y="3427" as="targetPoint" />
          </mxGeometry>
        </mxCell>
        <mxCell id="HFVsTXlP9Ub-2UcbBTZF-18" value="&lt;span style=&quot;font-size: 13px;&quot;&gt;PUT_ModifiedData&lt;br&gt;&lt;/span&gt;" style="text;html=1;align=center;verticalAlign=middle;resizable=0;points=[];autosize=1;strokeColor=none;fillColor=none;fontSize=16;labelBackgroundColor=default;" parent="1" vertex="1">
          <mxGeometry x="1017.6600000000001" y="3407" width="130" height="30" as="geometry" />
        </mxCell>
        <mxCell id="HFVsTXlP9Ub-2UcbBTZF-19" value="I" style="text;html=1;align=center;verticalAlign=middle;resizable=0;points=[];autosize=1;strokeColor=none;fillColor=none;fontSize=13;" parent="1" vertex="1">
          <mxGeometry x="439.9100000000001" y="3290" width="30" height="30" as="geometry" />
        </mxCell>
        <mxCell id="HFVsTXlP9Ub-2UcbBTZF-20" value="M" style="text;html=1;align=center;verticalAlign=middle;resizable=0;points=[];autosize=1;strokeColor=none;fillColor=none;fontSize=13;" parent="1" vertex="1">
          <mxGeometry x="596.6600000000001" y="3290" width="30" height="30" as="geometry" />
        </mxCell>
        <mxCell id="HFVsTXlP9Ub-2UcbBTZF-21" value="I" style="text;html=1;align=center;verticalAlign=middle;resizable=0;points=[];autosize=1;strokeColor=none;fillColor=none;fontSize=13;" parent="1" vertex="1">
          <mxGeometry x="759.6600000000001" y="3290" width="30" height="30" as="geometry" />
        </mxCell>
        <mxCell id="HFVsTXlP9Ub-2UcbBTZF-22" value="I" style="text;html=1;align=center;verticalAlign=middle;resizable=0;points=[];autosize=1;strokeColor=none;fillColor=none;fontSize=13;" parent="1" vertex="1">
          <mxGeometry x="910.6600000000001" y="3290" width="30" height="30" as="geometry" />
        </mxCell>
        <mxCell id="HFVsTXlP9Ub-2UcbBTZF-23" value="M" style="text;html=1;align=center;verticalAlign=middle;resizable=0;points=[];autosize=1;strokeColor=none;fillColor=none;fontSize=13;" parent="1" vertex="1">
          <mxGeometry x="1067.66" y="3290" width="30" height="30" as="geometry" />
        </mxCell>
        <mxCell id="HFVsTXlP9Ub-2UcbBTZF-24" value="" style="endArrow=classic;html=1;rounded=0;fontSize=13;" parent="1" edge="1">
          <mxGeometry width="50" height="50" relative="1" as="geometry">
            <mxPoint x="1149.66" y="3387" as="sourcePoint" />
            <mxPoint x="680.6600000000001" y="3437" as="targetPoint" />
          </mxGeometry>
        </mxCell>
        <mxCell id="HFVsTXlP9Ub-2UcbBTZF-25" value="&lt;span style=&quot;font-size: 13px;&quot;&gt;FWD_SharedData&lt;br&gt;&lt;/span&gt;" style="text;html=1;align=center;verticalAlign=middle;resizable=0;points=[];autosize=1;strokeColor=none;fillColor=none;fontSize=16;labelBackgroundColor=default;" parent="1" vertex="1">
          <mxGeometry x="714.6600000000001" y="3407" width="124" height="31" as="geometry" />
        </mxCell>
        <mxCell id="HFVsTXlP9Ub-2UcbBTZF-26" value="" style="endArrow=classic;html=1;rounded=0;fontSize=13;" parent="1" edge="1">
          <mxGeometry width="50" height="50" relative="1" as="geometry">
            <mxPoint x="680.6600000000001" y="3447" as="sourcePoint" />
            <mxPoint x="992" y="3477" as="targetPoint" />
          </mxGeometry>
        </mxCell>
        <mxCell id="HFVsTXlP9Ub-2UcbBTZF-27" value="" style="endArrow=classic;html=1;rounded=0;fontSize=13;" parent="1" edge="1">
          <mxGeometry width="50" height="50" relative="1" as="geometry">
            <mxPoint x="992" y="3487" as="sourcePoint" />
            <mxPoint x="1151.66" y="3507" as="targetPoint" />
          </mxGeometry>
        </mxCell>
        <mxCell id="HFVsTXlP9Ub-2UcbBTZF-28" value="&lt;span style=&quot;font-size: 13px;&quot;&gt;GET_ACK&lt;br&gt;&lt;/span&gt;" style="text;html=1;align=center;verticalAlign=middle;resizable=0;points=[];autosize=1;strokeColor=none;fillColor=none;fontSize=16;labelBackgroundColor=default;" parent="1" vertex="1">
          <mxGeometry x="1024.66" y="3487" width="80" height="30" as="geometry" />
        </mxCell>
        <mxCell id="HFVsTXlP9Ub-2UcbBTZF-29" value="" style="endArrow=classic;html=1;rounded=0;fontSize=13;exitX=0.5;exitY=1;exitDx=0;exitDy=0;" parent="1" source="HFVsTXlP9Ub-2UcbBTZF-6" edge="1">
          <mxGeometry width="50" height="50" relative="1" as="geometry">
            <mxPoint x="1240.66" y="3357" as="sourcePoint" />
            <mxPoint x="1150.66" y="3377" as="targetPoint" />
          </mxGeometry>
        </mxCell>
        <mxCell id="HFVsTXlP9Ub-2UcbBTZF-30" value="&lt;span style=&quot;font-size: 13px;&quot;&gt;GET_SharedData&lt;br&gt;&lt;/span&gt;" style="text;html=1;align=center;verticalAlign=middle;resizable=0;points=[];autosize=1;strokeColor=none;fillColor=none;fontSize=16;labelBackgroundColor=default;" parent="1" vertex="1">
          <mxGeometry x="1018.6600000000001" y="3333" width="130" height="30" as="geometry" />
        </mxCell>
        <mxCell id="HFVsTXlP9Ub-2UcbBTZF-31" value="&lt;span style=&quot;font-size: 13px;&quot;&gt;Data&lt;br&gt;&lt;/span&gt;" style="text;html=1;align=center;verticalAlign=middle;resizable=0;points=[];autosize=1;strokeColor=none;fillColor=none;fontSize=16;labelBackgroundColor=default;" parent="1" vertex="1">
          <mxGeometry x="860.6600000000001" y="3447" width="50" height="30" as="geometry" />
        </mxCell>
        <mxCell id="HFVsTXlP9Ub-2UcbBTZF-32" value="" style="endArrow=classic;html=1;rounded=0;fontSize=13;" parent="1" edge="1">
          <mxGeometry width="50" height="50" relative="1" as="geometry">
            <mxPoint x="680.6600000000001" y="3447" as="sourcePoint" />
            <mxPoint x="1150.66" y="3457" as="targetPoint" />
          </mxGeometry>
        </mxCell>
        <mxCell id="HFVsTXlP9Ub-2UcbBTZF-33" value="&lt;span style=&quot;font-size: 13px;&quot;&gt;Data&lt;br&gt;&lt;/span&gt;" style="text;html=1;align=center;verticalAlign=middle;resizable=0;points=[];autosize=1;strokeColor=none;fillColor=none;fontSize=16;labelBackgroundColor=default;" parent="1" vertex="1">
          <mxGeometry x="1011.6600000000001" y="3437" width="50" height="30" as="geometry" />
        </mxCell>
        <mxCell id="HFVsTXlP9Ub-2UcbBTZF-34" value="&lt;span style=&quot;font-size: 13px;&quot;&gt;to S&lt;br&gt;&lt;/span&gt;" style="text;html=1;align=center;verticalAlign=middle;resizable=0;points=[];autosize=1;strokeColor=none;fillColor=none;fontSize=16;labelBackgroundColor=default;" parent="1" vertex="1">
          <mxGeometry x="945.0000000000001" y="3477" width="41" height="31" as="geometry" />
        </mxCell>
        <mxCell id="HFVsTXlP9Ub-2UcbBTZF-35" value="&lt;span style=&quot;font-size: 13px;&quot;&gt;to S&lt;br&gt;&lt;/span&gt;" style="text;html=1;align=center;verticalAlign=middle;resizable=0;points=[];autosize=1;strokeColor=none;fillColor=none;fontSize=16;labelBackgroundColor=default;" parent="1" vertex="1">
          <mxGeometry x="1154" y="3492" width="41" height="31" as="geometry" />
        </mxCell>
        <mxCell id="HFVsTXlP9Ub-2UcbBTZF-36" value="" style="endArrow=classic;html=1;rounded=0;fontSize=13;" parent="1" edge="1">
          <mxGeometry width="50" height="50" relative="1" as="geometry">
            <mxPoint x="1150.66" y="3527" as="sourcePoint" />
            <mxPoint x="680.6600000000001" y="3547" as="targetPoint" />
          </mxGeometry>
        </mxCell>
        <mxCell id="HFVsTXlP9Ub-2UcbBTZF-37" value="" style="endArrow=classic;html=1;rounded=0;fontSize=13;" parent="1" edge="1">
          <mxGeometry width="50" height="50" relative="1" as="geometry">
            <mxPoint x="1150.66" y="3527" as="sourcePoint" />
            <mxPoint x="993" y="3577" as="targetPoint" />
          </mxGeometry>
        </mxCell>
        <mxCell id="HFVsTXlP9Ub-2UcbBTZF-38" value="&lt;span style=&quot;font-size: 13px;&quot;&gt;FWD_INV&lt;br&gt;&lt;/span&gt;" style="text;html=1;align=center;verticalAlign=middle;resizable=0;points=[];autosize=1;strokeColor=none;fillColor=none;fontSize=16;labelBackgroundColor=default;" parent="1" vertex="1">
          <mxGeometry x="1003.6600000000001" y="3547" width="80" height="30" as="geometry" />
        </mxCell>
        <mxCell id="HFVsTXlP9Ub-2UcbBTZF-39" value="" style="endArrow=classic;html=1;rounded=0;fontSize=13;" parent="1" edge="1">
          <mxGeometry width="50" height="50" relative="1" as="geometry">
            <mxPoint x="680.6600000000001" y="3557" as="sourcePoint" />
            <mxPoint x="520.6600000000001" y="3607" as="targetPoint" />
          </mxGeometry>
        </mxCell>
        <mxCell id="HFVsTXlP9Ub-2UcbBTZF-40" value="" style="endArrow=classic;html=1;rounded=0;fontSize=13;" parent="1" edge="1">
          <mxGeometry width="50" height="50" relative="1" as="geometry">
            <mxPoint x="1150.66" y="3527" as="sourcePoint" />
            <mxPoint x="520.6600000000001" y="3627" as="targetPoint" />
          </mxGeometry>
        </mxCell>
        <mxCell id="HFVsTXlP9Ub-2UcbBTZF-41" value="&lt;span style=&quot;font-size: 13px;&quot;&gt;ACK(ack=2)&lt;br&gt;&lt;/span&gt;" style="text;html=1;align=center;verticalAlign=middle;resizable=0;points=[];autosize=1;strokeColor=none;fillColor=none;fontSize=16;labelBackgroundColor=default;" parent="1" vertex="1">
          <mxGeometry x="695.6600000000001" y="3577" width="88" height="31" as="geometry" />
        </mxCell>
        <mxCell id="HFVsTXlP9Ub-2UcbBTZF-42" value="&lt;span style=&quot;font-size: 13px;&quot;&gt;ACK&lt;br&gt;&lt;/span&gt;" style="text;html=1;align=center;verticalAlign=middle;resizable=0;points=[];autosize=1;strokeColor=none;fillColor=none;fontSize=16;labelBackgroundColor=default;" parent="1" vertex="1">
          <mxGeometry x="589.4100000000001" y="3557" width="50" height="30" as="geometry" />
        </mxCell>
        <mxCell id="HFVsTXlP9Ub-2UcbBTZF-43" value="" style="endArrow=classic;html=1;rounded=0;fontSize=13;" parent="1" edge="1">
          <mxGeometry width="50" height="50" relative="1" as="geometry">
            <mxPoint x="990.6600000000001" y="3587" as="sourcePoint" />
            <mxPoint x="520.6600000000001" y="3647" as="targetPoint" />
          </mxGeometry>
        </mxCell>
        <mxCell id="HFVsTXlP9Ub-2UcbBTZF-44" value="&lt;span style=&quot;font-size: 13px;&quot;&gt;ACK(data)&lt;br&gt;&lt;/span&gt;" style="text;html=1;align=center;verticalAlign=middle;resizable=0;points=[];autosize=1;strokeColor=none;fillColor=none;fontSize=16;labelBackgroundColor=default;" parent="1" vertex="1">
          <mxGeometry x="706.6600000000001" y="3607" width="79" height="31" as="geometry" />
        </mxCell>
        <mxCell id="HFVsTXlP9Ub-2UcbBTZF-45" value="" style="endArrow=classic;html=1;rounded=0;fontSize=13;" parent="1" edge="1">
          <mxGeometry width="50" height="50" relative="1" as="geometry">
            <mxPoint x="520.6600000000001" y="3657" as="sourcePoint" />
            <mxPoint x="1150.66" y="3667" as="targetPoint" />
          </mxGeometry>
        </mxCell>
        <mxCell id="HFVsTXlP9Ub-2UcbBTZF-46" value="&lt;span style=&quot;font-size: 13px;&quot;&gt;GET_ACK&lt;br&gt;&lt;/span&gt;" style="text;html=1;align=center;verticalAlign=middle;resizable=0;points=[];autosize=1;strokeColor=none;fillColor=none;fontSize=16;labelBackgroundColor=default;" parent="1" vertex="1">
          <mxGeometry x="749.6600000000001" y="3647" width="80" height="30" as="geometry" />
        </mxCell>
        <mxCell id="HFVsTXlP9Ub-2UcbBTZF-47" value="" style="endArrow=classic;html=1;rounded=0;fontSize=13;" parent="1" edge="1">
          <mxGeometry width="50" height="50" relative="1" as="geometry">
            <mxPoint x="1150.66" y="3687" as="sourcePoint" />
            <mxPoint x="680.6600000000001" y="3717" as="targetPoint" />
          </mxGeometry>
        </mxCell>
        <mxCell id="HFVsTXlP9Ub-2UcbBTZF-48" value="&lt;span style=&quot;font-size: 13px;&quot;&gt;PUT_ACK&lt;br&gt;&lt;/span&gt;" style="text;html=1;align=center;verticalAlign=middle;resizable=0;points=[];autosize=1;strokeColor=none;fillColor=none;fontSize=16;labelBackgroundColor=default;" parent="1" vertex="1">
          <mxGeometry x="888.6600000000001" y="3687" width="80" height="30" as="geometry" />
        </mxCell>
        <mxCell id="HFVsTXlP9Ub-2UcbBTZF-49" value="&lt;span style=&quot;font-size: 13px;&quot;&gt;INV&lt;br&gt;&lt;/span&gt;" style="text;html=1;align=center;verticalAlign=middle;resizable=0;points=[];autosize=1;strokeColor=none;fillColor=none;fontSize=16;labelBackgroundColor=default;" parent="1" vertex="1">
          <mxGeometry x="874.1600000000001" y="3517" width="50" height="30" as="geometry" />
        </mxCell>
        <mxCell id="HFVsTXlP9Ub-2UcbBTZF-50" value="&lt;span style=&quot;font-size: 13px;&quot;&gt;to M&lt;br&gt;&lt;/span&gt;" style="text;html=1;align=center;verticalAlign=middle;resizable=0;points=[];autosize=1;strokeColor=none;fillColor=none;fontSize=16;labelBackgroundColor=default;" parent="1" vertex="1">
          <mxGeometry x="474.0000000000001" y="3637" width="43" height="31" as="geometry" />
        </mxCell>
        <mxCell id="HFVsTXlP9Ub-2UcbBTZF-51" value="&lt;span style=&quot;font-size: 13px;&quot;&gt;to I&lt;br&gt;&lt;/span&gt;" style="text;html=1;align=center;verticalAlign=middle;resizable=0;points=[];autosize=1;strokeColor=none;fillColor=none;fontSize=16;labelBackgroundColor=default;" parent="1" vertex="1">
          <mxGeometry x="636.6600000000001" y="3702" width="36" height="31" as="geometry" />
        </mxCell>
        <mxCell id="HFVsTXlP9Ub-2UcbBTZF-52" value="&lt;span style=&quot;font-size: 13px;&quot;&gt;to M&lt;br&gt;&lt;/span&gt;" style="text;html=1;align=center;verticalAlign=middle;resizable=0;points=[];autosize=1;strokeColor=none;fillColor=none;fontSize=16;labelBackgroundColor=default;" parent="1" vertex="1">
          <mxGeometry x="1155" y="3651" width="43" height="31" as="geometry" />
        </mxCell>
        <mxCell id="HFVsTXlP9Ub-2UcbBTZF-53" value="&lt;span style=&quot;font-size: 13px;&quot;&gt;to I&lt;br&gt;&lt;/span&gt;" style="text;html=1;align=center;verticalAlign=middle;resizable=0;points=[];autosize=1;strokeColor=none;fillColor=none;fontSize=16;labelBackgroundColor=default;" parent="1" vertex="1">
          <mxGeometry x="950" y="3559" width="36" height="31" as="geometry" />
        </mxCell>
        <mxCell id="HFVsTXlP9Ub-2UcbBTZF-54" value="" style="rounded=0;whiteSpace=wrap;html=1;sketch=0;fillStyle=auto;strokeWidth=1;fontSize=20;aspect=fixed;fillColor=default;" parent="1" vertex="1">
          <mxGeometry x="382.25" y="4758" width="953.33" height="715" as="geometry" />
        </mxCell>
        <mxCell id="HFVsTXlP9Ub-2UcbBTZF-55" value="CA 1" style="rounded=0;whiteSpace=wrap;html=1;sketch=0;fillStyle=auto;strokeWidth=1;fontSize=20;fillColor=none;" parent="1" vertex="1">
          <mxGeometry x="524.9100000000001" y="4849.5" width="107" height="56" as="geometry" />
        </mxCell>
        <mxCell id="HFVsTXlP9Ub-2UcbBTZF-56" value="CA 2" style="rounded=0;whiteSpace=wrap;html=1;sketch=0;fillStyle=auto;strokeWidth=1;fontSize=20;fillColor=none;" parent="1" vertex="1">
          <mxGeometry x="682.6600000000001" y="4849.5" width="107" height="56" as="geometry" />
        </mxCell>
        <mxCell id="HFVsTXlP9Ub-2UcbBTZF-57" value="CA 3" style="rounded=0;whiteSpace=wrap;html=1;sketch=0;fillStyle=auto;strokeWidth=1;fontSize=20;fillColor=none;" parent="1" vertex="1">
          <mxGeometry x="845.66" y="4849.5" width="107" height="56" as="geometry" />
        </mxCell>
        <mxCell id="HFVsTXlP9Ub-2UcbBTZF-58" value="CA 4" style="rounded=0;whiteSpace=wrap;html=1;sketch=0;fillStyle=auto;strokeWidth=1;fontSize=20;fillColor=none;" parent="1" vertex="1">
          <mxGeometry x="995.16" y="4849.5" width="107" height="56" as="geometry" />
        </mxCell>
        <mxCell id="HFVsTXlP9Ub-2UcbBTZF-59" value="HA" style="rounded=0;whiteSpace=wrap;html=1;sketch=0;fillStyle=auto;strokeWidth=1;fontSize=20;fillColor=none;" parent="1" vertex="1">
          <mxGeometry x="1153.6600000000003" y="4849.5" width="107" height="56" as="geometry" />
        </mxCell>
        <mxCell id="HFVsTXlP9Ub-2UcbBTZF-60" value="" style="endArrow=none;html=1;rounded=0;fontSize=18;strokeWidth=3;exitX=0.5;exitY=1;exitDx=0;exitDy=0;" parent="1" source="HFVsTXlP9Ub-2UcbBTZF-55" edge="1">
          <mxGeometry width="50" height="50" relative="1" as="geometry">
            <mxPoint x="513.9100000000001" y="5059.5" as="sourcePoint" />
            <mxPoint x="577.0000000000001" y="5411" as="targetPoint" />
          </mxGeometry>
        </mxCell>
        <mxCell id="HFVsTXlP9Ub-2UcbBTZF-61" value="" style="endArrow=none;html=1;rounded=0;fontSize=18;strokeWidth=3;exitX=0.5;exitY=1;exitDx=0;exitDy=0;" parent="1" source="HFVsTXlP9Ub-2UcbBTZF-56" edge="1">
          <mxGeometry width="50" height="50" relative="1" as="geometry">
            <mxPoint x="748.41" y="4919.5" as="sourcePoint" />
            <mxPoint x="737.0000000000001" y="5411" as="targetPoint" />
          </mxGeometry>
        </mxCell>
        <mxCell id="HFVsTXlP9Ub-2UcbBTZF-62" value="" style="endArrow=none;html=1;rounded=0;fontSize=18;strokeWidth=3;exitX=0.5;exitY=1;exitDx=0;exitDy=0;" parent="1" source="HFVsTXlP9Ub-2UcbBTZF-57" edge="1">
          <mxGeometry width="50" height="50" relative="1" as="geometry">
            <mxPoint x="913.66" y="5219.5" as="sourcePoint" />
            <mxPoint x="897.0000000000001" y="5411" as="targetPoint" />
          </mxGeometry>
        </mxCell>
        <mxCell id="HFVsTXlP9Ub-2UcbBTZF-63" value="" style="endArrow=none;html=1;rounded=0;fontSize=18;strokeWidth=3;exitX=0.5;exitY=1;exitDx=0;exitDy=0;" parent="1" source="HFVsTXlP9Ub-2UcbBTZF-58" edge="1">
          <mxGeometry width="50" height="50" relative="1" as="geometry">
            <mxPoint x="1012.1600000000002" y="5079.5" as="sourcePoint" />
            <mxPoint x="1047" y="5411" as="targetPoint" />
          </mxGeometry>
        </mxCell>
        <mxCell id="HFVsTXlP9Ub-2UcbBTZF-64" value="" style="endArrow=none;html=1;rounded=0;fontSize=18;strokeWidth=3;exitX=0.5;exitY=1;exitDx=0;exitDy=0;" parent="1" source="HFVsTXlP9Ub-2UcbBTZF-59" edge="1">
          <mxGeometry width="50" height="50" relative="1" as="geometry">
            <mxPoint x="1130.1600000000003" y="5149.5" as="sourcePoint" />
            <mxPoint x="1207" y="5411" as="targetPoint" />
          </mxGeometry>
        </mxCell>
        <mxCell id="HFVsTXlP9Ub-2UcbBTZF-65" value="" style="endArrow=classic;html=1;rounded=0;fontSize=16;" parent="1" edge="1">
          <mxGeometry width="50" height="50" relative="1" as="geometry">
            <mxPoint x="467.6600000000002" y="4929.5" as="sourcePoint" />
            <mxPoint x="467.6600000000002" y="5069.5" as="targetPoint" />
          </mxGeometry>
        </mxCell>
        <mxCell id="HFVsTXlP9Ub-2UcbBTZF-66" value="时间线" style="text;html=1;align=center;verticalAlign=middle;resizable=0;points=[];autosize=1;strokeColor=none;fillColor=none;fontSize=16;" parent="1" vertex="1">
          <mxGeometry x="401.6600000000002" y="4989.5" width="70" height="30" as="geometry" />
        </mxCell>
        <mxCell id="HFVsTXlP9Ub-2UcbBTZF-67" value="" style="endArrow=classic;html=1;rounded=0;fontSize=16;exitX=0.5;exitY=1;exitDx=0;exitDy=0;" parent="1" source="HFVsTXlP9Ub-2UcbBTZF-55" edge="1">
          <mxGeometry width="50" height="50" relative="1" as="geometry">
            <mxPoint x="587.6600000000001" y="4929.5" as="sourcePoint" />
            <mxPoint x="1206.6600000000003" y="4969.5" as="targetPoint" />
          </mxGeometry>
        </mxCell>
        <mxCell id="HFVsTXlP9Ub-2UcbBTZF-68" value="&lt;span style=&quot;font-size: 13px;&quot;&gt;GET_ModifiedData&lt;br&gt;&lt;/span&gt;" style="text;html=1;align=center;verticalAlign=middle;resizable=0;points=[];autosize=1;strokeColor=none;fillColor=none;fontSize=16;labelBackgroundColor=default;" parent="1" vertex="1">
          <mxGeometry x="605.4100000000001" y="4905.5" width="130" height="30" as="geometry" />
        </mxCell>
        <mxCell id="HFVsTXlP9Ub-2UcbBTZF-69" value="" style="endArrow=classic;html=1;rounded=0;fontSize=13;exitX=0.5;exitY=1;exitDx=0;exitDy=0;" parent="1" source="HFVsTXlP9Ub-2UcbBTZF-56" edge="1">
          <mxGeometry width="50" height="50" relative="1" as="geometry">
            <mxPoint x="907.66" y="5059.5" as="sourcePoint" />
            <mxPoint x="1206.6600000000003" y="4999.5" as="targetPoint" />
          </mxGeometry>
        </mxCell>
        <mxCell id="HFVsTXlP9Ub-2UcbBTZF-70" value="&lt;span style=&quot;font-size: 13px;&quot;&gt;PUT_ModifiedData&lt;br&gt;&lt;/span&gt;" style="text;html=1;align=center;verticalAlign=middle;resizable=0;points=[];autosize=1;strokeColor=none;fillColor=none;fontSize=16;labelBackgroundColor=default;" parent="1" vertex="1">
          <mxGeometry x="898.32" y="4947" width="130" height="30" as="geometry" />
        </mxCell>
        <mxCell id="HFVsTXlP9Ub-2UcbBTZF-71" value="I" style="text;html=1;align=center;verticalAlign=middle;resizable=0;points=[];autosize=1;strokeColor=none;fillColor=none;fontSize=13;" parent="1" vertex="1">
          <mxGeometry x="495.9100000000002" y="4862.5" width="30" height="30" as="geometry" />
        </mxCell>
        <mxCell id="HFVsTXlP9Ub-2UcbBTZF-72" value="M" style="text;html=1;align=center;verticalAlign=middle;resizable=0;points=[];autosize=1;strokeColor=none;fillColor=none;fontSize=13;" parent="1" vertex="1">
          <mxGeometry x="652.6600000000001" y="4862.5" width="30" height="30" as="geometry" />
        </mxCell>
        <mxCell id="HFVsTXlP9Ub-2UcbBTZF-73" value="I" style="text;html=1;align=center;verticalAlign=middle;resizable=0;points=[];autosize=1;strokeColor=none;fillColor=none;fontSize=13;" parent="1" vertex="1">
          <mxGeometry x="815.66" y="4862.5" width="30" height="30" as="geometry" />
        </mxCell>
        <mxCell id="HFVsTXlP9Ub-2UcbBTZF-74" value="I" style="text;html=1;align=center;verticalAlign=middle;resizable=0;points=[];autosize=1;strokeColor=none;fillColor=none;fontSize=13;" parent="1" vertex="1">
          <mxGeometry x="966.66" y="4862.5" width="30" height="30" as="geometry" />
        </mxCell>
        <mxCell id="HFVsTXlP9Ub-2UcbBTZF-75" value="M" style="text;html=1;align=center;verticalAlign=middle;resizable=0;points=[];autosize=1;strokeColor=none;fillColor=none;fontSize=13;" parent="1" vertex="1">
          <mxGeometry x="1123.6600000000003" y="4862.5" width="30" height="30" as="geometry" />
        </mxCell>
        <mxCell id="HFVsTXlP9Ub-2UcbBTZF-76" value="" style="endArrow=classic;html=1;rounded=0;fontSize=13;" parent="1" edge="1">
          <mxGeometry width="50" height="50" relative="1" as="geometry">
            <mxPoint x="1205.6600000000003" y="4959.5" as="sourcePoint" />
            <mxPoint x="736.66" y="5009.5" as="targetPoint" />
          </mxGeometry>
        </mxCell>
        <mxCell id="HFVsTXlP9Ub-2UcbBTZF-77" value="&lt;span style=&quot;font-size: 13px;&quot;&gt;FWD_SharedData&lt;br&gt;&lt;/span&gt;" style="text;html=1;align=center;verticalAlign=middle;resizable=0;points=[];autosize=1;strokeColor=none;fillColor=none;fontSize=16;labelBackgroundColor=default;" parent="1" vertex="1">
          <mxGeometry x="770.66" y="4979.5" width="124" height="31" as="geometry" />
        </mxCell>
        <mxCell id="HFVsTXlP9Ub-2UcbBTZF-78" value="" style="endArrow=classic;html=1;rounded=0;fontSize=13;" parent="1" edge="1">
          <mxGeometry width="50" height="50" relative="1" as="geometry">
            <mxPoint x="577.0000000000001" y="5061" as="sourcePoint" />
            <mxPoint x="1047" y="5101" as="targetPoint" />
          </mxGeometry>
        </mxCell>
        <mxCell id="HFVsTXlP9Ub-2UcbBTZF-79" value="" style="endArrow=classic;html=1;rounded=0;fontSize=13;" parent="1" edge="1">
          <mxGeometry width="50" height="50" relative="1" as="geometry">
            <mxPoint x="577.0000000000001" y="5251" as="sourcePoint" />
            <mxPoint x="1207" y="5271" as="targetPoint" />
          </mxGeometry>
        </mxCell>
        <mxCell id="HFVsTXlP9Ub-2UcbBTZF-80" value="&lt;span style=&quot;font-size: 13px;&quot;&gt;GET_ACK&lt;br&gt;&lt;/span&gt;" style="text;html=1;align=center;verticalAlign=middle;resizable=0;points=[];autosize=1;strokeColor=none;fillColor=none;fontSize=16;labelBackgroundColor=default;" parent="1" vertex="1">
          <mxGeometry x="631.9100000000002" y="5242" width="80" height="30" as="geometry" />
        </mxCell>
        <mxCell id="HFVsTXlP9Ub-2UcbBTZF-81" value="" style="endArrow=classic;html=1;rounded=0;fontSize=13;exitX=0.5;exitY=1;exitDx=0;exitDy=0;" parent="1" source="HFVsTXlP9Ub-2UcbBTZF-58" edge="1">
          <mxGeometry width="50" height="50" relative="1" as="geometry">
            <mxPoint x="1296.6600000000003" y="4929.5" as="sourcePoint" />
            <mxPoint x="1206.6600000000003" y="4949.5" as="targetPoint" />
          </mxGeometry>
        </mxCell>
        <mxCell id="HFVsTXlP9Ub-2UcbBTZF-82" value="&lt;span style=&quot;font-size: 13px;&quot;&gt;GET_SharedData&lt;br&gt;&lt;/span&gt;" style="text;html=1;align=center;verticalAlign=middle;resizable=0;points=[];autosize=1;strokeColor=none;fillColor=none;fontSize=16;labelBackgroundColor=default;" parent="1" vertex="1">
          <mxGeometry x="1074.6600000000003" y="4905.5" width="130" height="30" as="geometry" />
        </mxCell>
        <mxCell id="HFVsTXlP9Ub-2UcbBTZF-83" value="" style="endArrow=classic;html=1;rounded=0;fontSize=13;" parent="1" edge="1">
          <mxGeometry width="50" height="50" relative="1" as="geometry">
            <mxPoint x="897.0000000000001" y="5021" as="sourcePoint" />
            <mxPoint x="1047" y="5041" as="targetPoint" />
          </mxGeometry>
        </mxCell>
        <mxCell id="HFVsTXlP9Ub-2UcbBTZF-86" value="&lt;span style=&quot;font-size: 13px;&quot;&gt;to S&lt;br&gt;&lt;/span&gt;" style="text;html=1;align=center;verticalAlign=middle;resizable=0;points=[];autosize=1;strokeColor=none;fillColor=none;fontSize=16;labelBackgroundColor=default;" parent="1" vertex="1">
          <mxGeometry x="1211" y="5106" width="41" height="31" as="geometry" />
        </mxCell>
        <mxCell id="HFVsTXlP9Ub-2UcbBTZF-87" value="" style="endArrow=classic;html=1;rounded=0;fontSize=13;" parent="1" edge="1">
          <mxGeometry width="50" height="50" relative="1" as="geometry">
            <mxPoint x="1207" y="5361" as="sourcePoint" />
            <mxPoint x="737.0000000000001" y="5391" as="targetPoint" />
          </mxGeometry>
        </mxCell>
        <mxCell id="HFVsTXlP9Ub-2UcbBTZF-88" value="" style="endArrow=classic;html=1;rounded=0;fontSize=13;" parent="1" edge="1">
          <mxGeometry width="50" height="50" relative="1" as="geometry">
            <mxPoint x="1207" y="5281" as="sourcePoint" />
            <mxPoint x="577.0000000000001" y="5311" as="targetPoint" />
          </mxGeometry>
        </mxCell>
        <mxCell id="HFVsTXlP9Ub-2UcbBTZF-89" value="" style="endArrow=classic;html=1;rounded=0;fontSize=13;" parent="1" edge="1">
          <mxGeometry width="50" height="50" relative="1" as="geometry">
            <mxPoint x="737.0000000000001" y="5171" as="sourcePoint" />
            <mxPoint x="577.0000000000001" y="5201" as="targetPoint" />
          </mxGeometry>
        </mxCell>
        <mxCell id="HFVsTXlP9Ub-2UcbBTZF-90" value="&lt;span style=&quot;font-size: 13px;&quot;&gt;ACK&lt;br&gt;&lt;/span&gt;" style="text;html=1;align=center;verticalAlign=middle;resizable=0;points=[];autosize=1;strokeColor=none;fillColor=none;fontSize=16;labelBackgroundColor=default;" parent="1" vertex="1">
          <mxGeometry x="617.0000000000001" y="5171" width="50" height="30" as="geometry" />
        </mxCell>
        <mxCell id="HFVsTXlP9Ub-2UcbBTZF-91" value="" style="endArrow=classic;html=1;rounded=0;fontSize=13;" parent="1" edge="1">
          <mxGeometry width="50" height="50" relative="1" as="geometry">
            <mxPoint x="1207" y="5131" as="sourcePoint" />
            <mxPoint x="737.0000000000001" y="5171" as="targetPoint" />
          </mxGeometry>
        </mxCell>
        <mxCell id="HFVsTXlP9Ub-2UcbBTZF-92" value="" style="endArrow=classic;html=1;rounded=0;fontSize=13;" parent="1" edge="1">
          <mxGeometry width="50" height="50" relative="1" as="geometry">
            <mxPoint x="897.0000000000001" y="5321" as="sourcePoint" />
            <mxPoint x="1207" y="5341" as="targetPoint" />
          </mxGeometry>
        </mxCell>
        <mxCell id="HFVsTXlP9Ub-2UcbBTZF-93" value="&lt;span style=&quot;font-size: 13px;&quot;&gt;PUT_ACK&lt;br&gt;&lt;/span&gt;" style="text;html=1;align=center;verticalAlign=middle;resizable=0;points=[];autosize=1;strokeColor=none;fillColor=none;fontSize=16;labelBackgroundColor=default;" parent="1" vertex="1">
          <mxGeometry x="909.41" y="5361" width="80" height="30" as="geometry" />
        </mxCell>
        <mxCell id="HFVsTXlP9Ub-2UcbBTZF-94" value="&lt;span style=&quot;font-size: 13px;&quot;&gt;to M&lt;br&gt;&lt;/span&gt;" style="text;html=1;align=center;verticalAlign=middle;resizable=0;points=[];autosize=1;strokeColor=none;fillColor=none;fontSize=16;labelBackgroundColor=default;" parent="1" vertex="1">
          <mxGeometry x="528.0000000000001" y="5227" width="43" height="31" as="geometry" />
        </mxCell>
        <mxCell id="HFVsTXlP9Ub-2UcbBTZF-95" value="&lt;span style=&quot;font-size: 13px;&quot;&gt;to I&lt;br&gt;&lt;/span&gt;" style="text;html=1;align=center;verticalAlign=middle;resizable=0;points=[];autosize=1;strokeColor=none;fillColor=none;fontSize=16;labelBackgroundColor=default;" parent="1" vertex="1">
          <mxGeometry x="690.4000000000001" y="5376" width="36" height="31" as="geometry" />
        </mxCell>
        <mxCell id="HFVsTXlP9Ub-2UcbBTZF-96" value="&lt;span style=&quot;font-size: 13px;&quot;&gt;to I&lt;br&gt;&lt;/span&gt;" style="text;html=1;align=center;verticalAlign=middle;resizable=0;points=[];autosize=1;strokeColor=none;fillColor=none;fontSize=16;labelBackgroundColor=default;" parent="1" vertex="1">
          <mxGeometry x="1054" y="5179" width="36" height="31" as="geometry" />
        </mxCell>
        <mxCell id="HFVsTXlP9Ub-2UcbBTZF-97" value="" style="endArrow=classic;html=1;rounded=0;fontSize=13;" parent="1" edge="1">
          <mxGeometry width="50" height="50" relative="1" as="geometry">
            <mxPoint x="1207" y="4961" as="sourcePoint" />
            <mxPoint x="577.0000000000001" y="5051" as="targetPoint" />
          </mxGeometry>
        </mxCell>
        <mxCell id="HFVsTXlP9Ub-2UcbBTZF-98" value="" style="endArrow=classic;html=1;rounded=0;fontSize=13;" parent="1" edge="1">
          <mxGeometry width="50" height="50" relative="1" as="geometry">
            <mxPoint x="1207" y="4961" as="sourcePoint" />
            <mxPoint x="897.0000000000001" y="5021" as="targetPoint" />
          </mxGeometry>
        </mxCell>
        <mxCell id="HFVsTXlP9Ub-2UcbBTZF-99" value="&lt;span style=&quot;font-size: 13px;&quot;&gt;FWD_SharedData&lt;br&gt;&lt;/span&gt;" style="text;html=1;align=center;verticalAlign=middle;resizable=0;points=[];autosize=1;strokeColor=none;fillColor=none;fontSize=16;labelBackgroundColor=default;" parent="1" vertex="1">
          <mxGeometry x="929.1700000000002" y="4998.5" width="124" height="31" as="geometry" />
        </mxCell>
        <mxCell id="HFVsTXlP9Ub-2UcbBTZF-100" value="&lt;span style=&quot;font-size: 13px;&quot;&gt;ACK&lt;br&gt;&lt;/span&gt;" style="text;html=1;align=center;verticalAlign=middle;resizable=0;points=[];autosize=1;strokeColor=none;fillColor=none;fontSize=16;labelBackgroundColor=default;" parent="1" vertex="1">
          <mxGeometry x="952.66" y="5021" width="50" height="30" as="geometry" />
        </mxCell>
        <mxCell id="HFVsTXlP9Ub-2UcbBTZF-101" value="&lt;span style=&quot;font-size: 13px;&quot;&gt;FWD_SharedData&lt;br&gt;&lt;/span&gt;" style="text;html=1;align=center;verticalAlign=middle;resizable=0;points=[];autosize=1;strokeColor=none;fillColor=none;fontSize=16;labelBackgroundColor=default;" parent="1" vertex="1">
          <mxGeometry x="605.4100000000001" y="5019.5" width="124" height="31" as="geometry" />
        </mxCell>
        <mxCell id="HFVsTXlP9Ub-2UcbBTZF-102" value="&lt;span style=&quot;font-size: 13px;&quot;&gt;ACK&lt;br&gt;&lt;/span&gt;" style="text;html=1;align=center;verticalAlign=middle;resizable=0;points=[];autosize=1;strokeColor=none;fillColor=none;fontSize=16;labelBackgroundColor=default;" parent="1" vertex="1">
          <mxGeometry x="789.66" y="5064.5" width="50" height="30" as="geometry" />
        </mxCell>
        <mxCell id="HFVsTXlP9Ub-2UcbBTZF-103" value="" style="endArrow=classic;html=1;rounded=0;fontSize=13;" parent="1" edge="1">
          <mxGeometry width="50" height="50" relative="1" as="geometry">
            <mxPoint x="737.0000000000001" y="5041" as="sourcePoint" />
            <mxPoint x="1047" y="5091" as="targetPoint" />
          </mxGeometry>
        </mxCell>
        <mxCell id="HFVsTXlP9Ub-2UcbBTZF-104" value="&lt;span style=&quot;font-size: 13px;&quot;&gt;ACK(data)&lt;br&gt;&lt;/span&gt;" style="text;html=1;align=center;verticalAlign=middle;resizable=0;points=[];autosize=1;strokeColor=none;fillColor=none;fontSize=16;labelBackgroundColor=default;" parent="1" vertex="1">
          <mxGeometry x="910.41" y="5061" width="79" height="31" as="geometry" />
        </mxCell>
        <mxCell id="HFVsTXlP9Ub-2UcbBTZF-105" value="" style="endArrow=classic;html=1;rounded=0;fontSize=13;" parent="1" edge="1">
          <mxGeometry width="50" height="50" relative="1" as="geometry">
            <mxPoint x="737.0000000000001" y="5041" as="sourcePoint" />
            <mxPoint x="1207" y="5071" as="targetPoint" />
          </mxGeometry>
        </mxCell>
        <mxCell id="HFVsTXlP9Ub-2UcbBTZF-106" value="&lt;span style=&quot;font-size: 13px;&quot;&gt;Data&lt;br&gt;&lt;/span&gt;" style="text;html=1;align=center;verticalAlign=middle;resizable=0;points=[];autosize=1;strokeColor=none;fillColor=none;fontSize=16;labelBackgroundColor=default;" parent="1" vertex="1">
          <mxGeometry x="1107" y="5051" width="50" height="30" as="geometry" />
        </mxCell>
        <mxCell id="HFVsTXlP9Ub-2UcbBTZF-107" value="" style="endArrow=classic;html=1;rounded=0;fontSize=13;" parent="1" edge="1">
          <mxGeometry width="50" height="50" relative="1" as="geometry">
            <mxPoint x="1048" y="5102.75" as="sourcePoint" />
            <mxPoint x="1207" y="5121" as="targetPoint" />
          </mxGeometry>
        </mxCell>
        <mxCell id="HFVsTXlP9Ub-2UcbBTZF-108" value="&lt;span style=&quot;font-size: 13px;&quot;&gt;GET_ACK&lt;br&gt;&lt;/span&gt;" style="text;html=1;align=center;verticalAlign=middle;resizable=0;points=[];autosize=1;strokeColor=none;fillColor=none;fontSize=16;labelBackgroundColor=default;" parent="1" vertex="1">
          <mxGeometry x="1087.1600000000003" y="5094.5" width="80" height="30" as="geometry" />
        </mxCell>
        <mxCell id="HFVsTXlP9Ub-2UcbBTZF-109" value="" style="endArrow=classic;html=1;rounded=0;fontSize=13;" parent="1" edge="1">
          <mxGeometry width="50" height="50" relative="1" as="geometry">
            <mxPoint x="1207" y="5131" as="sourcePoint" />
            <mxPoint x="897.0000000000001" y="5181" as="targetPoint" />
          </mxGeometry>
        </mxCell>
        <mxCell id="HFVsTXlP9Ub-2UcbBTZF-110" value="" style="endArrow=classic;html=1;rounded=0;fontSize=13;" parent="1" edge="1">
          <mxGeometry width="50" height="50" relative="1" as="geometry">
            <mxPoint x="1207" y="5131" as="sourcePoint" />
            <mxPoint x="1047" y="5181" as="targetPoint" />
          </mxGeometry>
        </mxCell>
        <mxCell id="HFVsTXlP9Ub-2UcbBTZF-111" value="&lt;span style=&quot;font-size: 13px;&quot;&gt;FWD_INV&lt;br&gt;&lt;/span&gt;" style="text;html=1;align=center;verticalAlign=middle;resizable=0;points=[];autosize=1;strokeColor=none;fillColor=none;fontSize=16;labelBackgroundColor=default;" parent="1" vertex="1">
          <mxGeometry x="783.66" y="5146.25" width="80" height="30" as="geometry" />
        </mxCell>
        <mxCell id="HFVsTXlP9Ub-2UcbBTZF-112" value="&lt;span style=&quot;font-size: 13px;&quot;&gt;FWD_INV&lt;br&gt;&lt;/span&gt;" style="text;html=1;align=center;verticalAlign=middle;resizable=0;points=[];autosize=1;strokeColor=none;fillColor=none;fontSize=16;labelBackgroundColor=default;" parent="1" vertex="1">
          <mxGeometry x="937.66" y="5152" width="80" height="30" as="geometry" />
        </mxCell>
        <mxCell id="HFVsTXlP9Ub-2UcbBTZF-113" value="&lt;span style=&quot;font-size: 13px;&quot;&gt;FWD_INV&lt;br&gt;&lt;/span&gt;" style="text;html=1;align=center;verticalAlign=middle;resizable=0;points=[];autosize=1;strokeColor=none;fillColor=none;fontSize=16;labelBackgroundColor=default;" parent="1" vertex="1">
          <mxGeometry x="1091.92" y="5152" width="80" height="30" as="geometry" />
        </mxCell>
        <mxCell id="HFVsTXlP9Ub-2UcbBTZF-114" value="" style="endArrow=classic;html=1;rounded=0;fontSize=13;" parent="1" edge="1">
          <mxGeometry width="50" height="50" relative="1" as="geometry">
            <mxPoint x="897.0000000000001" y="5181" as="sourcePoint" />
            <mxPoint x="577.0000000000001" y="5221" as="targetPoint" />
          </mxGeometry>
        </mxCell>
        <mxCell id="HFVsTXlP9Ub-2UcbBTZF-115" value="&lt;span style=&quot;font-size: 13px;&quot;&gt;ACK&lt;br&gt;&lt;/span&gt;" style="text;html=1;align=center;verticalAlign=middle;resizable=0;points=[];autosize=1;strokeColor=none;fillColor=none;fontSize=16;labelBackgroundColor=default;" parent="1" vertex="1">
          <mxGeometry x="755.9200000000002" y="5178" width="50" height="30" as="geometry" />
        </mxCell>
        <mxCell id="HFVsTXlP9Ub-2UcbBTZF-116" value="" style="endArrow=classic;html=1;rounded=0;fontSize=13;" parent="1" edge="1">
          <mxGeometry width="50" height="50" relative="1" as="geometry">
            <mxPoint x="1046" y="5191" as="sourcePoint" />
            <mxPoint x="577.0000000000001" y="5241" as="targetPoint" />
          </mxGeometry>
        </mxCell>
        <mxCell id="HFVsTXlP9Ub-2UcbBTZF-117" value="&lt;span style=&quot;font-size: 13px;&quot;&gt;ACK(data)&lt;br&gt;&lt;/span&gt;" style="text;html=1;align=center;verticalAlign=middle;resizable=0;points=[];autosize=1;strokeColor=none;fillColor=none;fontSize=16;labelBackgroundColor=default;" parent="1" vertex="1">
          <mxGeometry x="782.91" y="5201" width="79" height="31" as="geometry" />
        </mxCell>
        <mxCell id="HFVsTXlP9Ub-2UcbBTZF-118" value="" style="endArrow=classic;html=1;rounded=0;fontSize=13;" parent="1" edge="1">
          <mxGeometry width="50" height="50" relative="1" as="geometry">
            <mxPoint x="1207" y="5281" as="sourcePoint" />
            <mxPoint x="897.0000000000001" y="5311" as="targetPoint" />
          </mxGeometry>
        </mxCell>
        <mxCell id="HFVsTXlP9Ub-2UcbBTZF-119" value="" style="endArrow=classic;html=1;rounded=0;fontSize=13;" parent="1" edge="1">
          <mxGeometry width="50" height="50" relative="1" as="geometry">
            <mxPoint x="1207" y="5281" as="sourcePoint" />
            <mxPoint x="1047" y="5311" as="targetPoint" />
          </mxGeometry>
        </mxCell>
        <mxCell id="HFVsTXlP9Ub-2UcbBTZF-120" value="&lt;span style=&quot;font-size: 13px;&quot;&gt;PROBE&lt;br&gt;&lt;/span&gt;" style="text;html=1;align=center;verticalAlign=middle;resizable=0;points=[];autosize=1;strokeColor=none;fillColor=none;fontSize=16;labelBackgroundColor=default;" parent="1" vertex="1">
          <mxGeometry x="626.15" y="5292" width="70" height="30" as="geometry" />
        </mxCell>
        <mxCell id="HFVsTXlP9Ub-2UcbBTZF-121" value="&lt;span style=&quot;font-size: 13px;&quot;&gt;PROBE&lt;br&gt;&lt;/span&gt;" style="text;html=1;align=center;verticalAlign=middle;resizable=0;points=[];autosize=1;strokeColor=none;fillColor=none;fontSize=16;labelBackgroundColor=default;" parent="1" vertex="1">
          <mxGeometry x="926.66" y="5292" width="70" height="30" as="geometry" />
        </mxCell>
        <mxCell id="HFVsTXlP9Ub-2UcbBTZF-122" value="&lt;span style=&quot;font-size: 13px;&quot;&gt;PROBE&lt;br&gt;&lt;/span&gt;" style="text;html=1;align=center;verticalAlign=middle;resizable=0;points=[];autosize=1;strokeColor=none;fillColor=none;fontSize=16;labelBackgroundColor=default;" parent="1" vertex="1">
          <mxGeometry x="1066.4099999999999" y="5292" width="70" height="30" as="geometry" />
        </mxCell>
        <mxCell id="HFVsTXlP9Ub-2UcbBTZF-123" value="" style="endArrow=classic;html=1;rounded=0;fontSize=13;" parent="1" edge="1">
          <mxGeometry width="50" height="50" relative="1" as="geometry">
            <mxPoint x="577.0000000000001" y="5321" as="sourcePoint" />
            <mxPoint x="1207" y="5351" as="targetPoint" />
          </mxGeometry>
        </mxCell>
        <mxCell id="HFVsTXlP9Ub-2UcbBTZF-124" value="&lt;span style=&quot;font-size: 13px;&quot;&gt;to F&lt;br&gt;&lt;/span&gt;" style="text;html=1;align=center;verticalAlign=middle;resizable=0;points=[];autosize=1;strokeColor=none;fillColor=none;fontSize=16;labelBackgroundColor=default;" parent="1" vertex="1">
          <mxGeometry x="1053" y="5072" width="40" height="31" as="geometry" />
        </mxCell>
        <mxCell id="HFVsTXlP9Ub-2UcbBTZF-125" value="&lt;span style=&quot;font-size: 13px;&quot;&gt;ACK&lt;br&gt;&lt;/span&gt;" style="text;html=1;align=center;verticalAlign=middle;resizable=0;points=[];autosize=1;strokeColor=none;fillColor=none;fontSize=16;labelBackgroundColor=default;" parent="1" vertex="1">
          <mxGeometry x="967.66" y="5311" width="50" height="30" as="geometry" />
        </mxCell>
        <mxCell id="HFVsTXlP9Ub-2UcbBTZF-126" value="&lt;span style=&quot;font-size: 13px;&quot;&gt;ACK&lt;br&gt;&lt;/span&gt;" style="text;html=1;align=center;verticalAlign=middle;resizable=0;points=[];autosize=1;strokeColor=none;fillColor=none;fontSize=16;labelBackgroundColor=default;" parent="1" vertex="1">
          <mxGeometry x="1102.16" y="5319" width="50" height="30" as="geometry" />
        </mxCell>
        <mxCell id="HFVsTXlP9Ub-2UcbBTZF-127" value="&lt;span style=&quot;font-size: 13px;&quot;&gt;ACK(IS_SharerOrOwner)&lt;br&gt;&lt;/span&gt;" style="text;html=1;align=center;verticalAlign=middle;resizable=0;points=[];autosize=1;strokeColor=none;fillColor=none;fontSize=16;labelBackgroundColor=default;" parent="1" vertex="1">
          <mxGeometry x="576.1500000000001" y="5311" width="170" height="30" as="geometry" />
        </mxCell>
        <mxCell id="HFVsTXlP9Ub-2UcbBTZF-128" value="&lt;span style=&quot;font-size: 13px;&quot;&gt;to M&lt;br&gt;&lt;/span&gt;" style="text;html=1;align=center;verticalAlign=middle;resizable=0;points=[];autosize=1;strokeColor=none;fillColor=none;fontSize=16;labelBackgroundColor=default;" parent="1" vertex="1">
          <mxGeometry x="1211" y="5255" width="43" height="31" as="geometry" />
        </mxCell>
      </root>
    </mxGraphModel>
  </diagram>
</mxfile>
